<svg width="67" height="64" viewBox="0 0 67 64" fill="none" xmlns="http://www.w3.org/2000/svg">
<path d="M33.5 4C23.375 4 14.25 9.375 9.25 18C4.125 26.75 4.125 37.375 9.25 46C14.25 54.75 23.375 60 33.5 60C43.5 60 52.625 54.75 57.625 46C62.75 37.375 62.75 26.75 57.625 18C52.625 9.375 43.5 4 33.5 4ZM33.5 64C22 64 11.5 58 5.75 48C0 38.125 0 26 5.75 16C11.5 6.125 22 0 33.5 0C44.875 0 55.375 6.125 61.125 16C66.875 26 66.875 38.125 61.125 48C55.375 58 44.875 64 33.5 64ZM46.875 25.5L30.875 41.5C30.125 42.25 28.75 42.25 28 41.5L20 33.5C19.25 32.75 19.25 31.375 20 30.625C20.75 29.875 22.125 29.875 22.875 30.625L29.5 37.25L44 22.625C44.75 21.875 46.125 21.875 46.875 22.625C47.625 23.375 47.625 24.75 46.875 25.5Z" fill="#007A22"/>
</svg>
