<svg width="52" height="65" viewBox="0 0 52 65" fill="none" xmlns="http://www.w3.org/2000/svg">
<path d="M48.7014 14.0742V24.8955C48.7014 26.816 43.707 28.8841 37.4017 30.0867H37.3983C34.1024 30.7163 30.4535 31.11 26.9658 31.1207C23.466 31.1315 19.8184 30.7615 16.5279 30.1521H16.5245C10.1718 28.9785 5.15918 26.9144 5.15918 24.9952V14.172C5.15918 16.4032 11.9238 18.8259 19.6931 19.8256C22.0772 20.1337 24.5581 20.3062 26.9665 20.2975C29.358 20.2887 31.8301 20.1013 34.2108 19.7804C41.9361 18.745 48.7027 16.3088 48.7027 14.0742H48.7014Z" fill="#FF7E88"/>
<path d="M26.8077 31.2569C23.4935 31.2569 19.9353 30.9219 16.5046 30.2875C16.5005 30.2875 16.4965 30.2869 16.4931 30.2862C10.7806 29.2306 5.0166 27.186 5.0166 24.9972V14.174C5.0166 14.0998 5.07757 14.0392 5.1521 14.0392C5.22662 14.0392 5.28759 14.0998 5.28759 14.174C5.28759 14.751 5.84177 15.9293 9.55367 17.3368C12.2602 18.3628 15.8644 19.2 19.703 19.6941C22.1852 20.015 24.6289 20.1748 26.9581 20.1647C29.2812 20.1559 31.7119 19.982 34.1847 19.649C38.0118 19.136 41.6031 18.2853 44.2975 17.2532C47.046 16.2003 48.5595 15.0725 48.5595 14.0762C48.5595 14.0021 48.6204 13.9414 48.695 13.9414C48.7695 13.9414 48.8305 14.0021 48.8305 14.0762V24.8975C48.8305 26.1277 46.9999 27.2015 45.4647 27.8857C43.4364 28.789 40.5795 29.6188 37.4204 30.2215C37.4156 30.2222 37.4116 30.2228 37.4068 30.2235C33.9151 30.8895 30.3028 31.2475 26.9594 31.2576C26.9093 31.2576 26.8578 31.2576 26.8077 31.2576V31.2569ZM16.5351 30.0193C16.5391 30.0193 16.5432 30.0199 16.5466 30.0206C20.016 30.663 23.6134 30.9967 26.9594 30.9866C30.2892 30.9765 33.888 30.6192 37.3668 29.9552C37.3716 29.9545 37.3757 29.9539 37.3804 29.9532C43.9635 28.6967 48.5608 26.6178 48.5608 24.8961V14.9081C48.0995 15.6287 46.9518 16.5252 44.3964 17.504C41.6831 18.5435 38.0701 19.3996 34.2227 19.9152C31.739 20.2503 29.2961 20.4242 26.9608 20.4336C24.6174 20.4424 22.1636 20.2833 19.6698 19.9611C15.8109 19.4649 12.1843 18.6223 9.45882 17.5883C6.89999 16.6176 5.75031 15.7244 5.28895 15.0051V24.9966C5.28895 26.7297 9.91341 28.7944 16.5358 30.0193H16.5351Z" fill="black"/>
<path d="M48.7027 24.9108V34.7937C48.7027 36.9192 42.5851 39.2246 35.3449 40.3382H35.3429C32.6214 40.7575 29.7415 41.0096 26.9665 41.0183C24.176 41.0271 21.292 40.7932 18.5665 40.3887H18.5644C11.2802 39.3095 5.15918 37.0135 5.15918 34.8915V25.0099C5.15918 26.9291 10.1718 28.9932 16.5245 30.1668H16.5279C19.8184 30.7761 23.466 31.1462 26.9658 31.1354C30.4528 31.1246 34.1024 30.731 37.3983 30.1014H37.4017C43.707 28.8988 48.7014 26.8313 48.7014 24.9102L48.7027 24.9108Z" fill="#FF7E88"/>
<path d="M26.8056 41.1461C24.1804 41.1461 21.3282 40.9283 18.5452 40.5158C18.5424 40.5158 18.5397 40.5158 18.5377 40.5151C11.8185 39.5195 5.0166 37.266 5.0166 34.8844V25.0028C5.0166 24.9287 5.07757 24.868 5.1521 24.868C5.22662 24.868 5.28759 24.9287 5.28759 25.0028C5.28759 26.7359 9.91206 28.8007 16.5344 30.0255C16.5385 30.0255 16.5425 30.0262 16.5459 30.0269C20.0153 30.6693 23.6127 31.003 26.9588 30.9928C30.2886 30.9827 33.8873 30.6255 37.3662 29.9615C37.3709 29.9608 37.375 29.9601 37.3797 29.9595C43.9628 28.7029 48.5601 26.624 48.5601 24.9024C48.5601 24.8282 48.6211 24.7676 48.6956 24.7676C48.7702 24.7676 48.8311 24.8282 48.8311 24.9024V34.786C48.8311 36.1456 46.6293 37.3186 44.7825 38.0628C42.3206 39.055 38.9738 39.9078 35.3581 40.4639C35.3554 40.4639 35.3527 40.4646 35.3493 40.4652C32.5114 40.9021 29.6104 41.1373 26.9594 41.1461C26.9079 41.1461 26.8571 41.1461 26.8056 41.1461ZM18.5716 40.2475C18.5716 40.2475 18.577 40.2475 18.579 40.2482C21.4048 40.6675 24.301 40.8825 26.9581 40.8758C29.5975 40.867 32.487 40.6324 35.3141 40.197C35.3168 40.197 35.3195 40.1963 35.3229 40.1956C42.8693 39.0341 48.5595 36.7085 48.5595 34.7853V25.7336C47.9938 26.6119 46.6429 27.3655 45.4647 27.89C43.4364 28.7933 40.5794 29.6231 37.4204 30.2257C37.4156 30.2264 37.4116 30.2271 37.4068 30.2278C33.9151 30.8938 30.3028 31.2517 26.9594 31.2618C23.6032 31.2733 19.9875 30.9369 16.5046 30.2925C16.5005 30.2925 16.4965 30.2918 16.4931 30.2911C11.5116 29.371 6.49147 27.6985 5.28759 25.8333V34.8831C5.28759 36.8184 10.9981 39.1238 18.5716 40.2462V40.2475Z" fill="black"/>
<path d="M48.7029 34.7871V45.2888C48.7666 48.2178 37.1512 51.5013 26.9667 51.5357C16.6927 51.5721 5.10854 48.3128 5.15935 45.3906V34.8855C5.15935 37.0076 11.2804 39.3042 18.5646 40.3828H18.5666C21.2921 40.7872 24.1755 41.0211 26.9667 41.0124C29.741 41.0036 32.6209 40.7515 35.343 40.3322H35.3451C42.5853 39.2186 48.7029 36.9132 48.7029 34.7878V34.7871Z" fill="#FF7E88"/>
<path d="M26.7862 51.6732C22.6028 51.6732 18.0535 51.1413 13.9541 50.1713C9.92311 49.2175 6.90292 47.9562 5.66788 46.7098C5.22819 46.2663 5.00869 45.822 5.01682 45.3906V34.8875C5.01682 34.8134 5.07779 34.7527 5.15231 34.7527C5.22684 34.7527 5.28781 34.8134 5.28781 34.8875C5.28781 36.8229 10.9983 39.1283 18.5718 40.2506C18.5745 40.2506 18.5772 40.2506 18.5792 40.2513C21.3508 40.6625 24.1915 40.8796 26.8059 40.8796C26.8574 40.8796 26.9075 40.8796 26.959 40.8796C29.5984 40.8708 32.4879 40.6362 35.315 40.2008C35.3177 40.2008 35.3204 40.2001 35.3238 40.1994C42.8702 39.0379 48.5604 36.7123 48.5604 34.7891C48.5604 34.715 48.6213 34.6543 48.6959 34.6543C48.7704 34.6543 48.8313 34.715 48.8313 34.7891V45.2908C48.8408 45.7182 48.6254 46.1604 48.1911 46.604C46.9676 47.8524 43.9508 49.1271 39.9151 50.1005C35.8319 51.0854 31.1106 51.6584 26.9603 51.6725C26.9027 51.6725 26.8445 51.6725 26.7869 51.6725L26.7862 51.6732ZM5.28781 35.7207V45.3933C5.28171 45.7519 5.47412 46.1308 5.86096 46.5211C7.06145 47.7324 10.0342 48.9674 14.0171 49.9098C18.1531 50.8879 22.7471 51.4184 26.959 51.4042C31.0889 51.3901 35.7872 50.8198 39.8507 49.8396C43.8383 48.8777 46.807 47.63 47.9967 46.4166C48.3781 46.027 48.5678 45.6501 48.5604 45.2949V35.625C47.9168 36.6267 46.2393 37.4801 44.7827 38.0672C42.3208 39.0595 38.974 39.9122 35.3583 40.4684C35.3556 40.4684 35.3529 40.469 35.3495 40.4697C32.5109 40.9065 29.6106 41.1418 26.9597 41.1506C24.2904 41.1586 21.3827 40.9416 18.5454 40.5209C18.5427 40.5209 18.54 40.5209 18.5379 40.5203C12.6093 39.6419 6.61567 37.7834 5.28781 35.7227V35.7207Z" fill="black"/>
<path d="M48.7027 14.0633V14.0869C48.7027 16.3215 41.9361 18.7571 34.2108 19.7931C31.8301 20.114 29.358 20.3007 26.9665 20.3102C24.5588 20.3189 22.0778 20.147 19.6931 19.8383C11.9238 18.8386 5.15918 16.4159 5.15918 14.1847V14.1644C5.2127 11.2537 16.824 8.75617 25.953 8.58225C36.2541 8.38811 48.6384 11.0528 48.7027 14.0633Z" fill="#FF444F"/>
<path d="M26.7738 20.4371C24.486 20.4371 22.0965 20.278 19.6684 19.9639C15.8095 19.4678 12.183 18.6252 9.45747 17.5911C5.78689 16.1991 5.0166 14.9662 5.0166 14.1768V14.1566C5.05115 12.2516 9.47712 10.865 12.1125 10.2077C16.2052 9.18783 21.3757 8.52654 25.9425 8.43958C30.92 8.34588 36.6196 8.92223 41.1899 9.98191C43.4445 10.5043 45.3232 11.1265 46.6232 11.7817C48.0717 12.5111 48.8142 13.2749 48.8305 14.0534V14.0797C48.8305 14.8691 48.0608 16.104 44.395 17.5082C41.6817 18.5476 38.0687 19.4037 34.2213 19.9194C31.7377 20.2545 29.2947 20.4284 26.9594 20.4378C26.8978 20.4378 26.8355 20.4378 26.7738 20.4378V20.4371ZM27.0522 8.69843C26.683 8.69843 26.3152 8.7018 25.948 8.70854C16.6889 8.88583 5.33705 11.4353 5.28759 14.1593V14.1768C5.28759 14.7538 5.84177 15.9322 9.55367 17.3397C12.2602 18.3656 15.8644 19.2029 19.703 19.697C22.1852 20.0178 24.6289 20.1776 26.9581 20.1675C29.2812 20.1587 31.7119 19.9848 34.1847 19.6518C38.0118 19.1388 41.6031 18.2881 44.2975 17.2561C47.046 16.2031 48.5595 15.0754 48.5595 14.0791V14.0568C48.4992 11.4002 37.4617 8.69843 27.0522 8.69843Z" fill="black"/>
<path d="M15.8446 17.4146C15.7843 17.4146 15.7287 17.3742 15.7132 17.3128C15.6949 17.2407 15.7382 17.1672 15.8107 17.149L18.5945 16.4419C18.667 16.423 18.7408 16.4668 18.7591 16.539C18.7774 16.6111 18.734 16.6846 18.6616 16.7028L15.8778 17.4099C15.8663 17.4126 15.8554 17.4139 15.8439 17.4139L15.8446 17.4146Z" fill="black"/>
<path d="M35.2465 12.3975C35.1862 12.3975 35.1314 12.357 35.1158 12.2964C35.0968 12.2242 35.1402 12.1508 35.2127 12.1319L37.9822 11.4126C38.0547 11.3938 38.1285 11.4369 38.1475 11.509C38.1665 11.5812 38.1231 11.6546 38.0506 11.6735L35.2811 12.3928C35.2696 12.3955 35.2581 12.3968 35.2465 12.3968V12.3975Z" fill="black"/>
<path d="M23.7115 17.441C23.3287 17.441 22.8464 17.4288 22.2935 17.3877C21.8254 17.3526 20.8898 17.2616 19.8838 17.0486C18.835 16.8262 18.2775 16.5889 18.039 16.4878C17.2389 16.148 17.0092 15.8467 16.8859 15.6849C16.6305 15.3506 16.6332 14.9987 16.8934 14.694C17.0465 14.5147 17.2951 14.3482 17.6332 14.1992C17.8689 14.0954 18.1494 13.9997 18.4672 13.9154C18.5396 13.8959 18.6135 13.939 18.6331 14.0112C18.6528 14.0833 18.6094 14.1568 18.5369 14.1763C18.2334 14.2572 17.9658 14.3475 17.7436 14.4459C17.4482 14.5767 17.2253 14.723 17.1007 14.8693C16.9239 15.0755 16.9245 15.2892 17.1027 15.5225C17.2186 15.6741 17.4123 15.9283 18.146 16.2404C18.377 16.3388 18.917 16.5687 19.9407 16.7857C20.9305 16.996 21.8525 17.085 22.3139 17.1194C23.4053 17.201 24.2176 17.1666 24.5238 17.1538C25.2413 17.1235 25.7209 17.0547 25.979 17.0183C26.3035 16.9725 26.7879 16.8882 27.254 16.752C27.4539 16.6934 27.836 16.5673 28.1531 16.3759C28.2974 16.2889 28.6361 16.0847 28.6496 15.8096C28.6639 15.5245 28.3373 15.2616 28.1964 15.1618C28.0941 15.0897 27.7831 14.8699 27.1348 14.6199C27.0393 14.5828 26.9641 14.5558 26.8909 14.5302C26.7764 14.4898 26.6687 14.4507 26.502 14.3819C26.3489 14.3185 25.9411 14.1493 25.6139 13.9316C25.1701 13.6364 25.0895 13.3896 25.0461 13.2568C24.9554 12.9811 25.0333 12.7014 25.2656 12.4695C25.4919 12.2437 25.8923 12.0334 26.4228 11.8628C26.6606 11.7866 27.0576 11.6586 27.7804 11.5514C28.0982 11.5042 28.7587 11.4064 29.7932 11.3923C30.9029 11.3775 31.8622 11.4651 32.3358 11.5183C32.8033 11.5709 33.7233 11.695 34.6352 11.9322C35.6094 12.1857 36.066 12.4344 36.3106 12.5679C36.9975 12.942 37.1195 13.2616 37.171 13.3984C37.3153 13.7786 37.1276 14.1588 36.6561 14.4412C36.3546 14.6219 35.9339 14.7789 35.4041 14.9077C35.3323 14.9252 35.2578 14.8814 35.2402 14.8086C35.2225 14.7365 35.2666 14.663 35.3397 14.6455C35.8424 14.5228 36.2381 14.3765 36.5158 14.21C36.7658 14.0604 37.0389 13.8143 36.9169 13.4941C36.8756 13.3856 36.7794 13.1315 36.1798 12.8045C35.9447 12.6764 35.5078 12.4385 34.5654 12.1931C33.6698 11.9599 32.764 11.8379 32.304 11.786C31.8372 11.7334 30.8901 11.6464 29.7953 11.6613C28.779 11.6747 28.13 11.7711 27.8184 11.817C27.1185 11.9208 26.7337 12.0441 26.5047 12.1183C25.8855 12.3171 25.5929 12.5221 25.456 12.6582C25.2948 12.8194 25.2433 12.9919 25.3022 13.1719C25.3381 13.2804 25.3977 13.4624 25.7636 13.7058C26.0685 13.9087 26.4587 14.0705 26.605 14.1311C26.7656 14.1979 26.8699 14.235 26.981 14.2747C27.0562 14.3017 27.1334 14.3293 27.2317 14.3671C27.9112 14.6293 28.2432 14.8639 28.3522 14.9407C28.5724 15.0964 28.9389 15.4187 28.9193 15.8218C28.8983 16.2397 28.4742 16.4959 28.2926 16.6051C27.9491 16.812 27.542 16.9475 27.3292 17.0095C26.8476 17.1504 26.3489 17.2367 26.0163 17.2839C25.7541 17.321 25.2656 17.3911 24.534 17.4221C24.3788 17.4288 24.0943 17.441 23.7108 17.441H23.7115Z" fill="black"/>
</svg>
