<svg width="24" height="24" viewBox="0 0 24 24" fill="none" xmlns="http://www.w3.org/2000/svg">
<path d="M17 15C17.5312 15 18 14.5625 18 14V7.625C18 7.5 17.9375 7.375 17.8438 7.28125L15.7188 5.15625C15.625 5.0625 15.5 5 15.375 5H12C11.4375 5 11 5.46875 11 6V14C11 14.5625 11.4375 15 12 15H17ZM18.5312 6.5625C18.8125 6.84375 19 7.25 19 7.625V14C19 15.125 18.0938 16 17 16H12C10.875 16 10 15.125 10 14V6C10 4.90625 10.875 4 12 4H15.375C15.75 4 16.1562 4.1875 16.4375 4.46875L18.5312 6.5625ZM7 8H9V9H7C6.4375 9 6 9.46875 6 10V18C6 18.5625 6.4375 19 7 19H12C12.5312 19 13 18.5625 13 18V17H14V18C14 19.125 13.0938 20 12 20H7C5.875 20 5 19.125 5 18V10C5 8.90625 5.875 8 7 8Z" fill="black" fill-opacity="0.72"/>
</svg>
