<svg width="120" height="152" viewBox="0 0 120 152" fill="none" xmlns="http://www.w3.org/2000/svg">
<path d="M100.326 89.7256C98.7575 88.7256 97.9117 87.5206 97.5129 86.9421C96.9895 86.1811 95.8736 84.5136 95.6756 82.0625C95.6049 81.1827 95.4592 79.006 96.7943 76.8392C97.1423 76.2734 98.0899 74.7827 100.009 73.9397C101.153 73.4376 102.193 73.3613 102.822 73.3655C102.276 69.9031 101.346 65.7477 99.7221 61.1962C98.1932 56.9092 96.4153 53.2913 94.7492 50.3762C94.1693 50.7836 92.6064 51.7652 90.4438 51.7326C88.4439 51.7029 87.0592 50.8232 86.2898 50.3338C84.0338 48.9011 83.0466 46.911 82.6944 46.1798C82.3422 45.4472 81.5926 43.8376 81.6605 41.6382C81.744 38.9877 82.9646 37.108 83.5119 36.364C81.0297 34.0996 77.7781 31.5141 73.6962 29.0885C70.0754 26.9372 66.671 25.4281 63.7729 24.3602C63.7432 24.8157 63.4518 28.336 60.5722 30.186C60.3204 30.3473 58.9951 31.1747 57.0843 31.2482C55.1367 31.3232 53.7252 30.5722 52.9939 30.1719C50.8172 28.9782 49.7592 27.2074 49.3052 26.4266C48.3194 24.728 48.0111 23.1099 47.9064 22.0718C45.2884 22.1948 41.9165 22.5993 38.1331 23.7082C33.8857 24.9529 30.5237 26.6756 28.1235 28.1423C28.6313 28.882 29.3837 30.179 29.7373 31.9526C29.9113 32.8239 30.2324 34.5395 29.586 36.538C29.3526 37.2607 28.4983 39.9056 25.8407 41.1234C23.4631 42.2139 21.1931 41.4501 20.4166 41.1885C18.6429 40.5916 17.4945 39.5308 16.9287 38.9283C15.2103 41.4572 13.2528 44.8291 11.6121 49.0241C10.0789 52.9448 9.24158 56.5132 8.77059 59.4C9.54426 59.6362 10.6899 60.0873 11.8709 60.9713C13.8892 62.4833 14.7902 64.3559 15.1211 65.148C15.4436 65.9202 16.3616 68.2044 15.7025 71.0247C15.4804 71.9738 15.0179 73.9581 13.1622 75.4376C11.3462 76.8859 9.32503 76.9509 8.6631 76.9439C9.24724 80.3115 10.1935 84.3 11.7634 88.6535C13.3758 93.1243 15.2484 96.8851 16.9938 99.9006C17.5539 99.489 18.766 98.721 20.4703 98.5555C22.4519 98.3617 23.9299 99.0972 24.6937 99.489C26.7544 100.547 27.801 102.141 28.2522 102.847C29.1617 104.27 29.5237 105.62 29.6836 106.459C32.2493 111.559 34.8135 116.66 37.3792 121.761C40.8953 123.132 44.4115 124.502 47.9262 125.873C47.9404 125.208 48.0606 123.702 49.045 122.17C49.4453 121.548 50.6121 119.951 52.7902 119.286C54.8666 118.652 56.6062 119.246 57.4393 119.545C59.8508 120.408 61.1506 122.14 61.7235 122.924C63.2637 125.035 63.5947 127.197 63.6824 128.24C66.3966 128.12 70.0075 127.693 74.0795 126.433C78.0496 125.204 81.2065 123.57 83.4865 122.171C82.8995 121.352 81.6931 119.418 81.6138 116.726C81.5841 115.736 81.5205 113.563 83.0127 111.517C83.3549 111.047 84.7764 109.159 87.3392 108.675C89.6235 108.244 91.4381 109.187 92.3985 109.687C93.513 110.267 94.3065 110.962 94.81 111.473C96.4733 108.948 98.3374 105.654 99.9329 101.615C101.534 97.5598 102.422 93.8683 102.933 90.8811C102.275 90.7043 101.329 90.3762 100.32 89.7326L100.326 89.7256ZM78.1981 87.5729C77.423 89.5601 74.8206 96.226 67.7798 99.7139C62.7446 102.207 58.0475 101.786 56.3276 101.608C48.557 100.807 43.594 96.0874 41.4314 94.0309C33.6424 86.6224 32.3822 77.3823 32.1319 75.0019C31.8716 72.5324 31.46 68.1465 33.3369 63.0335C33.9748 61.2952 37.0935 52.8005 45.7353 49.6012C52.1085 47.242 57.8353 49.1146 60.1139 49.86C71.3596 53.536 76.0525 63.9797 76.904 65.875C77.952 68.2087 82.1273 77.4997 78.1953 87.5729H78.1981Z" fill="white"/>
<path d="M63.6893 128.518C63.5436 128.518 63.4191 128.406 63.4078 128.259C63.2975 126.939 62.8774 124.97 61.5026 123.085C61.0175 122.42 59.7304 120.655 57.3529 119.805C56.6216 119.544 54.9102 118.931 52.8806 119.551C50.9189 120.149 49.7888 121.541 49.2909 122.317C48.4366 123.647 48.2344 124.985 48.216 125.873C48.2146 125.965 48.1665 126.051 48.0901 126.102C48.0137 126.153 47.9161 126.164 47.8299 126.13L37.2829 122.019C37.2178 121.993 37.164 121.945 37.1329 121.883L29.4373 106.581C29.426 106.557 29.4175 106.533 29.4118 106.507C29.1714 105.246 28.7032 104.065 28.0201 102.994C27.6326 102.389 26.6057 100.78 24.5704 99.7352C23.8802 99.3802 22.4432 98.6433 20.5041 98.8328C19.0034 98.9799 17.8606 99.6164 17.1676 100.124C17.1025 100.172 17.0205 100.189 16.9427 100.172C16.8635 100.155 16.7956 100.107 16.756 100.036C14.6783 96.4453 12.9103 92.6463 11.5044 88.7441C10.1311 84.9337 9.083 80.9777 8.39278 76.9864C8.37864 76.9043 8.40127 76.8195 8.45643 76.7544C8.51018 76.6908 8.58655 76.6526 8.67424 76.6554C9.59359 76.6639 11.3898 76.4899 12.9938 75.2099C14.7716 73.7913 15.22 71.8748 15.435 70.9541C15.8664 69.1041 15.6768 67.1847 14.8678 65.2513C14.3982 64.1283 13.469 62.5117 11.7095 61.192C10.8043 60.5131 9.79019 59.9997 8.69687 59.6645C8.56109 59.6235 8.47764 59.4877 8.50027 59.3491C9.08158 55.7863 10.0434 52.2758 11.3573 48.9167C12.7519 45.351 14.551 41.9353 16.7037 38.7657C16.7518 38.695 16.8295 38.6497 16.9158 38.6427C17.0007 38.6356 17.0855 38.6681 17.1449 38.7318C18.0841 39.736 19.2495 40.4912 20.5154 40.917C21.2424 41.1617 23.4559 41.907 25.7316 40.8632C27.4204 40.0896 28.6297 38.6045 29.3256 36.449C29.962 34.4802 29.6282 32.8098 29.4684 32.0064C29.2039 30.6783 28.675 29.4323 27.8985 28.3008C27.8546 28.2371 27.8391 28.1579 27.8546 28.0815C27.8702 28.0051 27.9168 27.9401 27.9833 27.8991C31.1331 25.9741 34.5234 24.472 38.0608 23.4353C41.2573 22.499 44.5669 21.9446 47.8992 21.7876C48.0519 21.7791 48.1792 21.8922 48.1934 22.0421C48.3461 23.5626 48.8044 24.9897 49.5554 26.2839C49.9458 26.9571 50.9825 28.7435 53.1352 29.923C53.7957 30.2851 55.1691 31.039 57.0785 30.964C58.8182 30.8961 60.0784 30.1677 60.4235 29.9471C63.1065 28.223 63.4517 24.9741 63.4941 24.3405C63.4997 24.2514 63.5478 24.1708 63.6228 24.1227C63.6978 24.0746 63.7911 24.0633 63.8746 24.0944C67.3285 25.3673 70.6834 26.9656 73.8445 28.8453C77.3621 30.9357 80.6802 33.3953 83.707 36.1548C83.8145 36.2524 83.83 36.415 83.7437 36.531C82.9644 37.5918 82.0196 39.3399 81.9475 41.6468C81.8796 43.8221 82.632 45.3892 82.9531 46.0568C83.2643 46.7046 84.2119 48.6762 86.4452 50.0949C87.2259 50.5913 88.5314 51.4215 90.4521 51.4498C92.3983 51.4767 93.8792 50.6451 94.5906 50.1444C94.6557 50.0991 94.7377 50.0821 94.8155 50.0991C94.8933 50.1161 94.9597 50.1656 94.9993 50.2349C96.9752 53.6944 98.6555 57.3506 99.9921 61.1001C101.404 65.0575 102.45 69.1691 103.105 73.3203C103.118 73.4023 103.094 73.4858 103.04 73.5494C102.986 73.6117 102.909 73.6484 102.825 73.6484C102.814 73.6484 102.795 73.6484 102.78 73.6484C101.849 73.6484 100.957 73.8337 100.126 74.1986C98.2496 75.0232 97.3387 76.5012 97.0389 76.9864C95.7249 79.1192 95.8961 81.2408 95.9611 82.0385C96.1577 84.4642 97.2722 86.0865 97.7489 86.7809C98.1011 87.2943 98.9271 88.4966 100.48 89.4866C101.259 89.9831 102.112 90.3579 103.013 90.5997C103.155 90.6379 103.244 90.7765 103.218 90.9208C102.59 94.6052 101.575 98.2359 100.203 101.711C98.8351 105.176 97.1025 108.51 95.0531 111.622C95.0064 111.692 94.93 111.739 94.8438 111.747C94.7603 111.756 94.674 111.725 94.6146 111.664C93.923 110.961 93.1352 110.377 92.2753 109.93C91.3361 109.442 89.5879 108.533 87.3999 108.946C85.2203 109.357 83.864 110.832 83.2487 111.675C81.8131 113.644 81.8739 115.715 81.9036 116.709C81.9729 119.078 82.9319 120.893 83.7239 121.999C83.7692 122.062 83.7862 122.143 83.7706 122.219C83.7551 122.296 83.7084 122.364 83.6419 122.405C80.6788 124.224 77.4922 125.668 74.1712 126.696C70.7767 127.747 67.2549 128.359 63.7034 128.516C63.6992 128.516 63.6949 128.516 63.6907 128.516L63.6893 128.518ZM54.6882 118.715C55.9852 118.715 57.0078 119.081 57.5424 119.272C60.084 120.181 61.4461 122.048 61.9595 122.751C63.3201 124.617 63.7953 126.557 63.9453 127.939C67.3568 127.765 70.7399 127.166 74.0029 126.156C77.1838 125.171 80.2389 123.799 83.0903 122.078C82.2926 120.893 81.4072 119.065 81.3379 116.726C81.3096 115.75 81.2417 113.467 82.7919 111.342C83.4566 110.431 84.9233 108.837 87.2952 108.388C89.6756 107.939 91.537 108.907 92.5369 109.426C93.3488 109.848 94.0984 110.384 94.7688 111.02C96.715 108.023 98.3656 104.824 99.6767 101.502C101.003 98.1412 101.992 94.6349 102.617 91.075C101.752 90.819 100.931 90.4442 100.176 89.9619C98.5254 88.9096 97.6541 87.6409 97.2822 87.0991C96.8239 86.4316 95.6047 84.6594 95.3968 82.0824C95.3345 81.3144 95.1464 78.9778 96.5566 76.6879C96.8791 76.1646 97.8592 74.5734 99.8988 73.6781C100.716 73.3189 101.589 73.1195 102.494 73.0855C101.842 69.0772 100.821 65.1099 99.4589 61.2882C98.1661 57.6646 96.5523 54.1301 94.6571 50.778C93.8183 51.3169 92.3347 52.0396 90.4436 52.0127C88.3631 51.9816 86.9176 51.0623 86.1411 50.5701C83.772 49.0638 82.7721 46.9832 82.4425 46.3001C82.1328 45.6551 81.3096 43.9409 81.3817 41.627C81.4539 39.3201 82.3449 37.5423 83.1398 36.4023C80.1922 33.7362 76.9689 31.3572 73.556 29.329C70.5292 27.5299 67.3228 25.9911 64.0231 24.7507C63.883 25.8991 63.2805 28.7831 60.7304 30.4209C60.2495 30.7306 58.9327 31.4562 57.1011 31.5269C55.0361 31.6076 53.5694 30.8028 52.8636 30.4167C50.5738 29.1607 49.479 27.2753 49.0674 26.5653C48.3192 25.2768 47.8468 23.8653 47.6616 22.3632C44.4636 22.5329 41.2884 23.0746 38.2206 23.9756C34.8261 24.9713 31.5674 26.4012 28.5307 28.2272C29.2605 29.3545 29.7626 30.5864 30.0229 31.8933C30.1798 32.6768 30.5462 34.5127 29.8644 36.6201C29.1177 38.9326 27.8065 40.5323 25.9678 41.3752C23.4884 42.5124 21.1151 41.7133 20.3358 41.4516C19.0911 41.033 17.937 40.3159 16.9781 39.3697C14.9343 42.4233 13.2215 45.7018 11.8849 49.1218C10.6148 52.3692 9.67845 55.758 9.09856 59.1992C10.165 59.5528 11.1565 60.0704 12.0489 60.7394C13.9117 62.1354 14.8947 63.8454 15.3911 65.0321C16.2454 67.0787 16.4462 69.114 15.9866 71.0814C15.7574 72.0643 15.2794 74.1095 13.3473 75.6512C11.7873 76.8959 10.0674 77.1773 9.00804 77.2155C9.69401 81.064 10.7124 84.8758 12.0376 88.5517C13.3983 92.3253 15.0983 96.0026 17.0926 99.4862C17.855 98.9757 18.9964 98.4099 20.4503 98.2685C22.5549 98.0634 24.1489 98.8823 24.8293 99.2317C27.0003 100.346 28.088 102.049 28.4967 102.688C29.2124 103.809 29.7046 105.043 29.9606 106.362L37.5898 121.531L47.67 125.46C47.7393 124.522 48.0095 123.263 48.8157 122.01C49.356 121.169 50.5822 119.659 52.7165 119.009C53.4195 118.794 54.0842 118.715 54.6896 118.715H54.6882ZM58.8903 102.036C57.7319 102.036 56.831 101.943 56.2977 101.889C48.431 101.079 43.3887 96.2841 41.236 94.2361C33.8502 87.2109 32.2123 78.4658 31.8502 75.0317C31.6169 72.8196 31.1331 68.2158 33.0708 62.936C35.5234 56.2573 39.9857 51.4286 45.6376 49.3368C52.1027 46.9436 57.9879 48.8672 60.2028 49.5913C64.9976 51.1585 69.1771 54.1074 72.6281 58.3576C75.3367 61.6941 76.7114 64.7534 77.164 65.7591C81.5217 75.456 80.2743 83.03 78.461 87.6762C78.0565 88.7115 77.2164 90.8642 75.57 93.2418C73.5234 96.1992 70.9436 98.4622 67.9041 99.9671C64.4502 101.679 61.1689 102.036 58.8903 102.036ZM52.0376 48.7356C48.8892 48.7356 46.8568 49.4881 45.8342 49.8671C40.3407 51.901 35.9972 56.6109 33.6026 63.1312C31.7102 68.288 32.184 72.8026 32.4132 74.9723C32.7682 78.3442 34.3763 86.9294 41.6264 93.8259C43.7381 95.8343 48.6813 100.536 56.3557 101.326C57.8974 101.485 62.5889 101.968 67.6524 99.4594C70.6056 97.9969 73.1119 95.7961 75.1047 92.9193C76.7129 90.5955 77.5374 88.4852 77.9335 87.4697C79.7071 82.9239 80.9235 75.5083 76.6478 65.991C76.2037 65.0024 74.8515 61.9926 72.1897 58.7141C68.8093 54.5501 64.7175 51.662 60.0289 50.1288C56.8295 49.0822 54.1762 48.7356 52.039 48.7356H52.0376Z" fill="black"/>
<path d="M73.602 95.276C72.1211 96.918 70.2159 98.5064 67.779 99.7129C62.7438 102.208 58.0466 101.785 56.3267 101.608C48.5562 100.808 43.5931 96.0864 41.4319 94.0299C33.643 86.6228 32.3828 77.3813 32.1324 75.0009C31.8736 72.5328 31.4606 68.1468 33.3375 63.0339C33.9768 61.2956 37.094 52.7995 45.7373 49.6015C47.8999 48.8024 49.9847 48.4884 51.8898 48.4517C51.095 49.2649 50.2435 50.2578 49.4189 51.4544C48.9479 52.1361 47.6948 54.0314 46.7288 56.6635C44.9933 61.3918 45.2677 65.5486 45.4375 67.7494C45.6001 69.8809 46.204 74.7845 49.1615 80.1704C52.0426 85.4206 55.686 88.4389 56.8246 89.3398C58.5869 90.733 62.8371 94.0115 69.1792 95.0016C71.0023 95.2844 72.5412 95.3099 73.6034 95.2774L73.602 95.276Z" fill="#CED0D6"/>
<path d="M58.8885 102.037C57.7301 102.037 56.8305 101.945 56.2973 101.89C48.4306 101.079 43.3883 96.2832 41.2356 94.2352C33.8469 87.2086 32.2105 78.4649 31.8498 75.0308C31.6179 72.8173 31.1341 68.2121 33.0704 62.9365C35.5258 56.255 39.9881 51.4263 45.6372 49.3359C47.6201 48.6032 49.7219 48.21 51.8816 48.169C51.9948 48.1662 52.1009 48.2341 52.1461 48.3402C52.1914 48.4462 52.1688 48.5679 52.0881 48.6499C51.1971 49.5622 50.3753 50.5593 49.6469 51.6144C48.589 53.1448 47.6456 54.9722 46.9893 56.7599C45.2383 61.532 45.5594 65.7158 45.715 67.727C45.9413 70.6873 46.7658 75.226 49.4036 80.0335C52.0033 84.7688 55.2747 87.7574 56.9946 89.118C58.5872 90.3782 62.819 93.7232 69.2177 94.7218C70.6632 94.9467 72.1341 95.0386 73.5909 94.9947C73.7097 94.9919 73.8087 95.0556 73.8568 95.1588C73.9049 95.2621 73.8865 95.3823 73.8101 95.4671C72.1058 97.3568 70.1186 98.8715 67.9023 99.9677C64.447 101.679 61.1656 102.038 58.8856 102.038L58.8885 102.037ZM51.207 48.7588C49.3513 48.8607 47.548 49.2326 45.8352 49.8649C40.3446 51.8973 36.001 56.6072 33.6051 63.1275C31.7126 68.2829 32.1695 72.6335 32.4156 74.9714C32.7692 78.3419 34.3773 86.9286 41.6288 93.8251C43.7405 95.8335 48.6837 100.536 56.3581 101.327C57.8998 101.485 62.5927 101.968 67.6562 99.4599C69.6165 98.4897 71.393 97.1828 72.9445 95.5704C71.6702 95.5746 70.3958 95.4756 69.1356 95.2804C62.5899 94.2593 58.2732 90.8464 56.6481 89.5621C54.8957 88.1746 51.5592 85.1281 48.9114 80.3065C46.2241 75.4113 45.3854 70.7877 45.1534 67.7709C44.9964 65.72 44.6683 61.4528 46.4617 56.5648C47.3231 54.2169 48.4178 52.4023 49.1844 51.2934C49.7983 50.4037 50.4772 49.5537 51.207 48.7602V48.7588Z" fill="black"/>
<path d="M20.7366 115.025C25.8072 110.17 30.8777 105.314 35.9483 100.46C36.3669 100.023 37.1519 99.32 38.3301 98.8816C39.9863 98.2663 41.429 98.5421 42.2479 98.709C44.4713 99.1644 45.8843 100.402 46.3949 100.862C48.2647 102.542 48.9167 104.498 49.2081 105.41C49.4499 106.167 49.8884 107.591 49.696 109.457C49.6211 110.181 49.4386 111.769 48.3326 113.361C47.863 114.037 47.3637 114.515 46.9974 114.824C40.0231 121.455 33.0488 128.084 26.0745 134.715C25.5568 135.143 24.5498 135.86 23.1043 136.179C20.9827 136.647 19.2798 135.958 18.5415 135.648C16.6533 134.855 15.5402 133.562 15.0395 132.893C11.5517 128.491 8.06523 124.091 4.57738 119.691C4.33693 119.427 4.02153 119.045 3.71602 118.543C3.57458 118.312 3.02156 117.376 2.68211 115.73C2.48834 114.786 2.22668 113.516 2.50956 111.884C2.65524 111.041 2.97772 109.315 4.37512 107.866C5.14313 107.068 5.95215 106.649 6.32696 106.46C6.76966 106.235 7.64375 105.802 8.82334 105.685C10.6026 105.509 11.976 106.161 12.6407 106.488C13.9109 107.112 14.751 107.948 15.5685 108.762C16.0282 109.221 16.3846 109.631 16.6307 109.932C17.9984 111.631 19.3675 113.328 20.7352 115.027L20.7366 115.025Z" fill="#FF7373"/>
<path d="M21.6532 136.618C20.1243 136.618 18.9504 136.125 18.4327 135.907C16.635 135.152 15.4724 133.942 14.8147 133.06L4.3639 119.871C4.03152 119.504 3.73308 119.107 3.47708 118.687C3.21118 118.251 2.71898 117.295 2.40781 115.783C2.21121 114.827 1.94248 113.517 2.23384 111.831C2.36962 111.046 2.68786 109.208 4.17437 107.665C4.99188 106.817 5.83909 106.386 6.20117 106.202C6.60144 105.999 7.54059 105.522 8.79797 105.397C10.6932 105.211 12.1472 105.924 12.7681 106.229C14.0807 106.873 14.9392 107.73 15.7708 108.557C16.1499 108.935 16.5134 109.335 16.8514 109.748L20.7636 114.605L35.7532 100.252C36.4575 99.5151 37.2948 98.9606 38.2326 98.6127C39.9977 97.9564 41.5564 98.2747 42.306 98.4288C44.651 98.9083 46.1078 100.218 46.5859 100.648C48.5504 102.415 49.2011 104.451 49.4797 105.321C49.7074 106.035 50.1812 107.52 49.979 109.484C49.9125 110.127 49.7371 111.836 48.566 113.519C48.177 114.079 47.7131 114.587 47.1884 115.032L26.2712 134.917C26.2712 134.917 26.2613 134.925 26.257 134.93C25.3518 135.679 24.284 136.205 23.1666 136.451C22.6348 136.569 22.1271 136.616 21.6532 136.616V136.618ZM9.42029 105.936C9.23642 105.936 9.04831 105.945 8.85454 105.965C7.70324 106.078 6.86168 106.505 6.45717 106.71C6.12055 106.881 5.33133 107.281 4.58171 108.061C3.21542 109.478 2.9184 111.196 2.79111 111.93C2.51813 113.51 2.77414 114.759 2.96225 115.671C3.25502 117.099 3.71328 117.99 3.95938 118.394C4.19841 118.786 4.47705 119.158 4.78821 119.499C4.79245 119.503 4.79669 119.509 4.80094 119.513L15.2631 132.716C15.884 133.548 16.9717 134.679 18.6519 135.386C19.2856 135.652 20.9687 136.36 23.045 135.903C24.0718 135.676 25.0548 135.193 25.8879 134.504L46.8037 114.621C46.8037 114.621 46.8122 114.614 46.8164 114.609C47.3072 114.195 47.7386 113.721 48.1007 113.201C49.1869 111.636 49.3467 110.09 49.4146 109.43C49.6042 107.584 49.1544 106.175 48.938 105.498C48.6735 104.672 48.0568 102.737 46.2054 101.074C45.7556 100.669 44.3851 99.4373 42.19 98.9875C41.439 98.8334 40.0416 98.5476 38.4277 99.1473C37.5706 99.4656 36.804 99.9733 36.152 100.656L20.9319 115.232C20.8753 115.287 20.7975 115.315 20.7183 115.309C20.6391 115.304 20.5656 115.267 20.5161 115.205L16.4116 110.11C16.0863 109.714 15.7355 109.328 15.3706 108.963C14.5715 108.168 13.7455 107.345 12.5178 106.743C12.0044 106.491 10.8799 105.939 9.41888 105.939L9.42029 105.936Z" fill="black"/>
<path d="M27.7112 108.348C25.386 110.574 23.0622 112.8 20.7369 115.026C19.3692 113.328 18.0001 111.629 16.6324 109.93C16.3863 109.63 16.0299 109.22 15.5716 108.761C14.7541 107.946 13.914 107.111 12.6439 106.488C11.9777 106.161 10.6057 105.508 8.82645 105.684C8.06976 105.759 7.44036 105.963 6.96937 106.161H6.96796C9.75994 104.795 12.5519 103.431 15.3425 102.066C16.0497 101.738 17.1571 101.361 18.5135 101.42C19.5884 101.467 20.3862 101.771 20.9392 101.98C22.2008 102.458 23.0424 103.099 23.3634 103.359C23.7821 103.696 24.1031 104.018 24.3252 104.263C25.4539 105.625 26.584 106.986 27.7112 108.348Z" fill="#FF444F"/>
<path d="M20.7372 115.309C20.7372 115.309 20.7244 115.309 20.7188 115.309C20.6396 115.304 20.566 115.265 20.5165 115.205L16.412 110.109C16.1022 109.729 15.7416 109.332 15.371 108.961C14.5747 108.168 13.7501 107.346 12.5182 106.742C11.9397 106.459 10.5848 105.795 8.85214 105.966C8.25386 106.025 7.65699 106.178 7.0771 106.423C6.97102 106.467 6.84938 106.444 6.76735 106.362C6.70229 106.297 6.67259 106.205 6.68814 106.114C6.7037 106.024 6.76028 105.946 6.84231 105.906L10.2057 104.263C11.8761 103.447 13.5465 102.631 15.2154 101.815C16.2904 101.317 17.4021 101.09 18.5237 101.14C19.6368 101.189 20.4727 101.505 21.0257 101.713C21.9464 102.062 22.812 102.554 23.539 103.14C23.8983 103.428 24.2321 103.742 24.5333 104.075L27.9278 108.169C28.0226 108.284 28.0127 108.452 27.9052 108.554L20.9309 115.233C20.8786 115.284 20.8079 115.312 20.7357 115.312L20.7372 115.309ZM9.42355 105.372C11.0077 105.372 12.2155 105.963 12.7671 106.233C14.0825 106.878 14.9396 107.734 15.7699 108.56C16.1602 108.95 16.5237 109.35 16.8504 109.751L20.7626 114.608L27.3239 108.325L24.1048 104.443C23.8318 104.143 23.5192 103.848 23.184 103.578C22.5037 103.03 21.6919 102.568 20.8362 102.245C20.2747 102.032 19.5208 101.748 18.4982 101.703C17.4671 101.658 16.4445 101.867 15.4587 102.324C13.794 103.138 12.1236 103.955 10.4532 104.771L9.21564 105.375C9.28494 105.372 9.35425 105.372 9.42214 105.372H9.42355Z" fill="black"/>
<path d="M57.9412 107.699C57.5876 108.561 57.1605 109.224 56.8225 109.68C56.4986 110.016 56.1761 110.353 55.8522 110.691C48.9401 117.278 42.0295 123.864 35.1174 130.451C34.8869 130.652 34.6139 130.863 34.2985 131.069C33.7837 131.404 33.2915 131.632 32.8771 131.788C30.3001 132.981 27.7216 134.175 25.1447 135.37C25.5421 135.134 25.8533 134.899 26.0753 134.714C33.0496 128.083 40.0239 121.453 46.9982 114.824C47.3659 114.514 47.8638 114.036 48.3334 113.36C49.4394 111.769 49.6219 110.18 49.6968 109.456C49.8892 107.589 49.4493 106.166 49.2089 105.41C48.9175 104.496 48.2655 102.54 46.3957 100.86C45.8851 100.401 44.4735 99.1623 42.2487 98.7083C41.5217 98.5584 40.2997 98.3236 38.874 98.7069C41.6999 97.325 44.5244 95.9474 47.3504 94.567C47.9303 94.4227 48.7789 94.2728 49.8043 94.3096C52.0645 94.3902 53.6373 95.3251 53.981 95.5358C55.4689 96.4538 56.2468 97.6037 56.8012 98.4424C57.2977 99.1977 58.391 100.898 58.5862 103.371C58.763 105.595 58.1209 107.261 57.9412 107.698V107.699Z" fill="#FF444F"/>
<path d="M25.1466 135.653C25.0447 135.653 24.9471 135.598 24.8962 135.502C24.8255 135.369 24.8722 135.204 25.0023 135.127C25.3191 134.939 25.6176 134.73 25.8891 134.504C32.8606 127.874 39.8335 121.247 46.8049 114.62C46.8092 114.616 46.8134 114.613 46.8177 114.609C47.307 114.196 47.7398 113.722 48.1033 113.2C49.1896 111.636 49.3494 110.09 49.4173 109.43C49.6068 107.588 49.157 106.177 48.9406 105.498C48.6776 104.672 48.0609 102.737 46.2081 101.072C45.7583 100.668 44.3863 99.4356 42.1926 98.9872C41.5463 98.8543 40.3441 98.6068 38.9481 98.9816C38.808 99.0198 38.6609 98.9448 38.61 98.8076C38.5591 98.6718 38.6199 98.5177 38.75 98.454C40.6057 97.546 42.4614 96.6408 44.317 95.7342L47.2264 94.3141C47.2448 94.3057 47.2632 94.2986 47.2816 94.2943C48.109 94.0878 48.9619 93.9973 49.8133 94.0284C51.9674 94.1048 53.5473 94.9407 54.1272 95.2957C55.6971 96.2646 56.5033 97.4809 57.0365 98.2871C57.4821 98.9632 58.6631 100.758 58.8681 103.351C59.0322 105.421 58.5216 107.031 58.202 107.807C57.905 108.531 57.516 109.219 57.0478 109.85C57.0408 109.86 57.0323 109.868 57.0252 109.877L56.055 110.888L35.3103 130.658C35.0416 130.893 34.7558 131.109 34.4503 131.307C33.9907 131.607 33.4971 131.856 32.9836 132.05L31.1888 132.881C29.2129 133.796 27.237 134.712 25.2611 135.628C25.2229 135.646 25.1819 135.655 25.1423 135.655L25.1466 135.653ZM47.1882 115.036C40.4784 121.415 33.7672 127.794 27.0574 134.173C28.3558 133.57 29.6556 132.969 30.9554 132.366L32.7602 131.531C32.7602 131.531 32.7729 131.525 32.78 131.522C33.258 131.342 33.7177 131.111 34.1463 130.832C34.4291 130.648 34.6936 130.449 34.9326 130.238L55.6589 110.485L56.608 109.496C57.0436 108.906 57.4043 108.266 57.6815 107.591C57.9233 107.004 58.4679 105.42 58.3066 103.393C58.1143 100.945 57.0295 99.2998 56.567 98.5969C56.062 97.8331 55.2968 96.679 53.8344 95.7752C53.2941 95.4442 51.8161 94.6635 49.7963 94.5914C49.0057 94.5631 48.2179 94.6451 47.4499 94.8332L44.5674 96.2405C43.2209 96.8982 41.873 97.5559 40.5265 98.2136C41.279 98.2178 41.8985 98.3451 42.3072 98.43C44.6508 98.908 46.1076 100.218 46.5871 100.648C48.5531 102.416 49.2037 104.452 49.4809 105.322C49.7086 106.036 50.1825 107.524 49.9802 109.483C49.9137 110.127 49.7369 111.835 48.5687 113.519C48.1783 114.079 47.7144 114.588 47.1896 115.032L47.1882 115.036Z" fill="black"/>
<path d="M59.2106 120.424C55.4512 122.239 51.6903 124.054 47.9309 125.868C47.9451 125.203 48.0667 123.697 49.0497 122.167C49.4514 121.543 50.6168 119.948 52.7964 119.281C54.8713 118.649 56.6124 119.242 57.4454 119.54C58.1173 119.779 58.7028 120.088 59.2106 120.424Z" fill="#CED0D6"/>
<path d="M47.9313 126.149C47.8776 126.149 47.8253 126.134 47.7786 126.104C47.6966 126.05 47.6471 125.958 47.6485 125.861C47.6683 124.9 47.8861 123.453 48.8125 122.012C49.3528 121.171 50.5791 119.663 52.7134 119.01C54.9269 118.335 56.7585 118.993 57.5406 119.273C58.1813 119.5 58.7966 119.809 59.3666 120.188C59.4514 120.244 59.4995 120.342 59.4925 120.442C59.4854 120.544 59.4246 120.633 59.3326 120.678L48.053 126.122C48.0134 126.141 47.9724 126.151 47.9299 126.151L47.9313 126.149ZM54.685 119.281C54.1291 119.281 53.521 119.355 52.8788 119.55C50.9171 120.149 49.787 121.541 49.2877 122.316C48.5721 123.429 48.3146 124.547 48.2383 125.402L58.6226 120.391C58.2153 120.158 57.7896 119.961 57.3497 119.804C56.8504 119.625 55.8915 119.281 54.6836 119.281H54.685Z" fill="black"/>
<path d="M116.199 84.5317C115.733 87.6956 114.82 91.7648 112.955 96.2413C111.438 99.8833 109.68 102.859 108.097 105.159C103.669 107.262 99.2431 109.364 94.8146 111.467C96.4779 108.942 98.3435 105.648 99.9375 101.607C101.539 97.551 102.427 93.8609 102.936 90.8738C107.356 88.7593 111.776 86.6448 116.197 84.5303L116.199 84.5317Z" fill="#EBECEF"/>
<path d="M94.8156 111.749C94.7349 111.749 94.6572 111.715 94.602 111.652C94.5185 111.556 94.5086 111.417 94.5794 111.311C96.6076 108.233 98.3218 104.933 99.6754 101.504C101.033 98.0625 102.037 94.47 102.658 90.8251C102.674 90.7346 102.732 90.6568 102.815 90.6172C107.235 88.5027 111.655 86.3882 116.076 84.2737C116.171 84.2285 116.283 84.2398 116.366 84.3006C116.451 84.3628 116.494 84.4661 116.478 84.5693C115.883 88.6173 114.785 92.5789 113.217 96.3468C111.908 99.4867 110.265 102.505 108.33 105.317C108.302 105.358 108.263 105.39 108.218 105.412L94.9358 111.72C94.8962 111.738 94.8552 111.747 94.8142 111.747L94.8156 111.749ZM103.192 91.0656C102.562 94.6991 101.556 98.2789 100.202 101.712C98.9555 104.868 97.4067 107.916 95.5921 110.785L107.907 104.936C109.801 102.174 111.41 99.2124 112.693 96.1318C114.177 92.5719 115.234 88.8337 115.837 85.0163C111.623 87.0318 107.406 89.0487 103.192 91.0656Z" fill="black"/>
<path d="M116.169 67.0502C111.719 69.1562 107.272 71.2594 102.823 73.364C102.277 69.903 101.346 65.7462 99.7222 61.1947C98.1947 56.9091 96.4154 53.2898 94.7507 50.3747C99.1635 48.2602 103.576 46.1457 107.988 44.0312C109.766 46.9675 111.733 50.7792 113.355 55.4255C114.886 59.8044 115.713 63.783 116.169 67.0488V67.0502Z" fill="#EBECEF"/>
<path d="M102.822 73.6486C102.777 73.6486 102.732 73.6372 102.691 73.616C102.612 73.575 102.558 73.4986 102.544 73.4095C101.893 69.288 100.855 65.2104 99.4574 61.2912C98.1336 57.5756 96.4674 53.9506 94.5057 50.5165C94.4661 50.4486 94.4576 50.3665 94.4817 50.2916C94.5057 50.2166 94.558 50.1544 94.6288 50.1204L95.1591 49.8658C99.3952 47.8362 103.631 45.8052 107.867 43.777C107.999 43.7147 108.156 43.7614 108.232 43.8859C110.419 47.4982 112.234 51.3495 113.624 55.3338C114.945 59.113 115.897 63.0422 116.45 67.0109C116.467 67.1339 116.403 67.2528 116.291 67.3051C111.842 69.4111 107.395 71.5157 102.945 73.6189C102.907 73.6372 102.866 73.6457 102.824 73.6457L102.822 73.6486ZM95.1464 50.5009C97.0587 53.8855 98.688 57.4497 99.9892 61.1016C101.357 64.9346 102.384 68.9189 103.041 72.9484C107.314 70.9273 111.586 68.9062 115.859 66.885C115.306 63.0238 114.373 59.2007 113.088 55.5219C111.737 51.6564 109.986 47.9154 107.879 44.4007C103.72 46.3921 99.5621 48.385 95.4024 50.3778L95.145 50.5009H95.1464Z" fill="black"/>
<path d="M96.8241 30.0277C92.3872 32.1394 87.9503 34.2511 83.5148 36.3627C81.0325 34.0983 77.7809 31.5128 73.699 29.0872C70.0782 26.9359 66.6724 25.4282 63.7757 24.3589C68.2098 22.2119 72.6439 20.0635 77.0779 17.915C79.8869 18.9079 83.2121 20.3365 86.7509 22.4227C91.035 24.9473 94.3659 27.687 96.8255 30.0277H96.8241Z" fill="#EBECEF"/>
<path d="M83.5144 36.6458C83.4451 36.6458 83.3772 36.6203 83.3235 36.5722C80.3264 33.8382 77.0394 31.4027 73.553 29.3306C70.4229 27.4707 67.1006 25.888 63.6764 24.625C63.5703 24.5854 63.4967 24.4864 63.4911 24.3732C63.4854 24.2601 63.5477 24.154 63.6509 24.1045C68.085 21.9575 72.5191 19.8091 76.9531 17.6606C77.021 17.6281 77.1002 17.6239 77.1709 17.6479C80.5456 18.8402 83.8171 20.3649 86.8934 22.1781C90.541 24.328 93.9469 26.8993 97.0189 29.8228C97.0868 29.8865 97.1179 29.9798 97.1037 30.0718C97.0896 30.1637 97.0302 30.2429 96.9453 30.2825L95.2198 31.1043C91.3585 32.9415 87.4973 34.7802 83.6361 36.6175C83.5979 36.6359 83.5554 36.6444 83.5144 36.6444V36.6458ZM64.4925 24.3252C67.73 25.5599 70.8727 27.0789 73.8429 28.8427C77.3081 30.902 80.5782 33.3178 83.5653 36.0249C87.3686 34.2145 91.1733 32.4041 94.9779 30.5923L96.3315 29.9487C93.3698 27.1723 90.0998 24.7226 86.6077 22.6647C83.5965 20.8896 80.3971 19.3946 77.096 18.2193C72.8953 20.2546 68.6946 22.2899 64.4939 24.3237L64.4925 24.3252Z" fill="black"/>
<path d="M61.1941 15.6624C56.7657 17.7981 52.3401 19.9338 47.9117 22.0695C45.2937 22.1911 41.9218 22.597 38.1398 23.7059C35.7961 24.3933 33.7227 25.2249 31.9306 26.0806C37.1257 23.5532 42.3193 21.0242 47.5128 18.4982C49.0743 17.9013 50.8479 17.3271 52.8196 16.8518C55.951 16.0923 58.7967 15.7713 61.1941 15.6638V15.6624Z" fill="#EBECEF"/>
<path d="M31.9302 26.3639C31.8255 26.3639 31.7237 26.3045 31.6756 26.204C31.6077 26.064 31.6671 25.8943 31.8071 25.8264L35.3742 24.091C39.3797 22.142 43.3852 20.1929 47.3907 18.2439C47.3978 18.2397 47.4063 18.2369 47.4133 18.234C49.1544 17.5693 50.9507 17.012 52.754 16.5764C55.5036 15.9102 58.3394 15.5071 61.1823 15.3812C61.3153 15.3742 61.4369 15.4647 61.4694 15.5948C61.502 15.7249 61.4397 15.8607 61.3181 15.9187L48.0357 22.3258C48.0017 22.3428 47.9635 22.3513 47.9254 22.3541C44.6426 22.5069 41.3782 23.0542 38.2199 23.9792C36.1054 24.6001 34.0305 25.3936 32.0532 26.337C32.0136 26.3554 31.9726 26.3653 31.9316 26.3653L31.9302 26.3639ZM47.6255 18.7588C44.3965 20.3287 41.1689 21.9001 37.9398 23.4715C37.9795 23.4602 38.0191 23.4474 38.0587 23.4361C41.241 22.504 44.5323 21.951 47.8391 21.7912L59.7736 16.0333C57.4484 16.2129 55.1373 16.5792 52.8842 17.1266C51.1091 17.5551 49.3383 18.1039 47.6241 18.7588H47.6255Z" fill="black"/>
<path d="M29.5921 36.5365C29.3587 37.2592 28.503 39.9027 25.8468 41.1219C23.4679 42.2123 21.1978 41.4486 20.4213 41.1869C18.6462 40.5886 17.4978 39.5293 16.9348 38.9253C21.2473 36.8462 25.5597 34.7657 29.8722 32.6865H29.8736C30.0122 33.6356 30.0871 35.0033 29.5921 36.5365Z" fill="#CED0D6"/>
<path d="M23.1889 41.9713C21.8707 41.9713 20.8071 41.6135 20.3333 41.4551C18.9755 40.9982 17.7294 40.1892 16.7281 39.1185C16.6672 39.0534 16.6404 38.9615 16.6573 38.8738C16.6743 38.7847 16.7309 38.7097 16.8129 38.6716L29.7502 32.4328C29.8591 32.3804 29.9878 32.4031 30.0727 32.4879C30.1151 32.5303 30.1448 32.5883 30.1547 32.6477C30.3627 34.0692 30.2679 35.369 29.862 36.6235C29.1152 38.9346 27.8055 40.5357 25.9654 41.3787C24.9937 41.8242 24.039 41.9727 23.1889 41.9727V41.9713ZM17.4126 39.0082C18.0859 39.6645 19.1141 40.4466 20.5129 40.9176C21.2413 41.1623 23.4548 41.9062 25.7292 40.8624C27.4179 40.0874 28.6272 38.6023 29.3231 36.4482C29.6654 35.3902 29.77 34.2955 29.6427 33.1102L17.4126 39.0082Z" fill="black"/>
<path d="M96.8384 115.771C92.3902 117.903 87.942 120.033 83.4938 122.164C82.9068 121.345 81.6989 119.41 81.6197 116.717C81.5914 115.727 81.5263 113.555 83.0199 111.508C83.3636 111.039 84.7837 109.151 87.3465 108.667C89.6293 108.237 91.4454 109.179 92.4043 109.679C93.5189 110.259 94.3137 110.955 94.8144 111.466C94.9445 111.404 95.0747 111.343 95.2048 111.279C95.2769 111.892 95.4212 112.661 95.7182 113.51C96.052 114.46 96.4749 115.215 96.837 115.77L96.8384 115.771Z" fill="#CED0D6"/>
<path d="M83.4934 122.447C83.4043 122.447 83.318 122.405 83.2629 122.33C82.4242 121.16 81.41 119.239 81.3365 116.727C81.3082 115.751 81.2403 113.467 82.7905 111.344C83.9389 109.771 85.5386 108.723 87.2939 108.391C89.6799 107.941 91.537 108.91 92.5341 109.431C93.3898 109.875 94.1762 110.446 94.8721 111.128C94.8777 111.125 94.882 111.122 94.8876 111.121C94.9527 111.09 95.0164 111.06 95.0814 111.029C95.1634 110.989 95.261 110.992 95.3402 111.036C95.4209 111.08 95.4746 111.16 95.4845 111.251C95.5708 111.991 95.7391 112.72 95.9838 113.421C96.2539 114.189 96.6203 114.928 97.0729 115.618C97.1181 115.686 97.1308 115.771 97.1082 115.849C97.0856 115.928 97.0318 115.993 96.9583 116.029C94.7349 117.095 92.5101 118.16 90.2867 119.225C88.0619 120.29 85.8385 121.355 83.6151 122.422C83.5755 122.44 83.5344 122.45 83.4934 122.45V122.447ZM88.5173 108.841C88.1595 108.841 87.7861 108.872 87.3985 108.945C85.2218 109.357 83.864 110.834 83.2473 111.677C81.8117 113.644 81.8725 115.715 81.9022 116.709C81.9687 118.945 82.8258 120.688 83.5882 121.805C85.7395 120.774 87.8921 119.743 90.0434 118.712C92.172 117.692 94.3007 116.672 96.4279 115.652C96.029 115.003 95.7023 114.316 95.452 113.604C95.2356 112.988 95.0772 112.35 94.9768 111.702C94.964 111.708 94.9499 111.715 94.9371 111.72C94.8282 111.773 94.6967 111.75 94.6118 111.664C93.9216 110.961 93.1352 110.378 92.2725 109.93C91.5002 109.527 90.182 108.839 88.5159 108.839L88.5173 108.841Z" fill="black"/>
<path d="M116.198 84.5308C111.778 86.6438 107.358 88.7583 102.937 90.8742C102.279 90.6974 101.334 90.3679 100.324 89.7258C98.7558 88.7258 97.91 87.5208 97.5126 86.9423C96.9893 86.1813 95.8733 84.5138 95.6753 82.0627C95.6046 81.1829 95.4589 79.0062 96.7941 76.8394C97.1434 76.2736 98.0897 74.7843 100.008 73.9413C101.152 73.4378 102.193 73.3629 102.821 73.3671C105.456 72.121 108.091 70.8736 110.726 69.6289C110.304 70.1607 109.727 71.0235 109.344 72.2059C108.734 74.087 108.979 75.6669 109.106 76.425C109.195 76.9525 109.617 79.2056 111.453 81.3541C113.192 83.3908 115.247 84.2196 116.197 84.5336L116.198 84.5308Z" fill="#CED0D6"/>
<path d="M102.937 91.1569C102.913 91.1569 102.887 91.154 102.863 91.147C101.907 90.8895 101.002 90.4921 100.173 89.9645C98.5241 88.9137 97.6529 87.6436 97.2809 87.1019C96.8226 86.4343 95.6034 84.6606 95.3955 82.0851C95.3347 81.3156 95.148 78.9749 96.5553 76.6906C96.8778 76.1673 97.8608 74.5761 99.8961 73.6808C100.791 73.2877 101.755 73.0854 102.76 73.0826L110.607 69.3712C110.726 69.3147 110.867 69.3486 110.949 69.4505C111.031 69.5537 111.031 69.6994 110.949 69.8026C110.355 70.5537 109.907 71.391 109.616 72.2905C109.015 74.1433 109.276 75.7077 109.388 76.3752C109.521 77.1687 110.01 79.2252 111.671 81.1671C113.211 82.9705 115.033 83.846 116.289 84.2618C116.398 84.2986 116.475 84.3976 116.482 84.5121C116.49 84.6267 116.426 84.7356 116.323 84.7851C111.903 86.8982 107.483 89.0127 103.061 91.1286C103.023 91.147 102.981 91.1569 102.94 91.1569H102.937ZM102.786 73.6483C101.849 73.6483 100.954 73.8336 100.122 74.1999C98.2469 75.0245 97.3346 76.5025 97.0348 76.9877C95.7236 79.1149 95.8934 81.2407 95.957 82.0398C96.1536 84.464 97.2696 86.0877 97.7448 86.7808C98.097 87.2942 98.9244 88.4978 100.476 89.4865C101.228 89.9645 102.046 90.3295 102.909 90.5727C107.095 88.57 111.282 86.5672 115.468 84.5645C114.208 84.0581 112.617 83.1501 111.238 81.5349C109.486 79.484 108.968 77.3087 108.828 76.4686C108.709 75.76 108.432 74.0995 109.075 72.1151C109.278 71.49 109.551 70.8945 109.89 70.3344L102.943 73.62C102.904 73.6384 102.866 73.6455 102.821 73.6469C102.81 73.6469 102.797 73.6469 102.786 73.6469V73.6483Z" fill="black"/>
<path d="M105.787 45.0883C102.108 46.8492 98.4296 48.6129 94.7508 50.3766C94.1709 50.784 92.6081 51.7656 90.4469 51.7316C88.447 51.7005 87.0623 50.8208 86.2914 50.3328C84.0369 48.9 83.0483 46.91 82.6961 46.1774C82.3453 45.4461 81.5943 43.8352 81.6636 41.6358C81.7456 38.9838 82.9677 37.1056 83.515 36.3616C87.9505 34.2499 92.3874 32.1383 96.8243 30.0266C96.3109 30.7211 95.2671 32.3292 95.0733 34.6191C94.8951 36.7237 95.5287 38.2936 95.8767 39.1253C96.2529 40.0277 97.8299 43.797 101.703 44.9511C103.362 45.4447 104.848 45.2835 105.786 45.0883H105.787Z" fill="#CED0D6"/>
<path d="M90.5524 52.0157C90.5157 52.0157 90.4789 52.0157 90.4407 52.0157C88.3644 51.9846 86.9189 51.0681 86.1424 50.5759C83.7705 49.0682 82.7691 46.9862 82.4396 46.3017C82.1001 45.5931 81.3053 43.9354 81.3788 41.6271C81.4552 39.1746 82.4566 37.319 83.2854 36.1945C83.3137 36.1563 83.349 36.1266 83.3915 36.1068C87.2513 34.2682 91.1125 32.4309 94.9752 30.5936L96.7008 29.7719C96.8181 29.7153 96.9582 29.7478 97.0402 29.8468C97.1222 29.9472 97.1265 30.0901 97.0487 30.1948C96.3684 31.1127 95.5226 32.6289 95.3528 34.643C95.176 36.7235 95.8238 38.2708 96.135 39.0162C97.7035 42.7742 100.071 44.1702 101.781 44.6808C103.03 45.0528 104.357 45.0966 105.726 44.8123C105.866 44.7826 106.006 44.8632 106.051 44.999C106.096 45.1348 106.034 45.2833 105.906 45.3441C103.637 46.4304 101.367 47.518 99.0981 48.6057L94.8904 50.6226C94.1294 51.1544 92.5793 52.0171 90.5496 52.0171L90.5524 52.0157ZM83.6998 36.5877C82.9275 37.6528 82.0153 39.3797 81.9446 41.6455C81.8752 43.8152 82.6277 45.3866 82.9488 46.057C83.2599 46.7048 84.2104 48.6778 86.4409 50.095C87.2244 50.5915 88.5313 51.4203 90.4478 51.4486C92.3855 51.4811 93.8734 50.6438 94.5848 50.1445C94.5976 50.136 94.6117 50.1275 94.6259 50.1205L98.8548 48.0937C100.617 47.2493 102.379 46.4035 104.143 45.5591C103.28 45.5761 102.435 45.4629 101.621 45.2211C99.794 44.6765 97.2679 43.1957 95.6145 39.2326C95.2864 38.4476 94.6018 36.8126 94.7899 34.5949C94.9257 32.991 95.4632 31.6827 96.0275 30.7181L95.2171 31.1042C91.377 32.9316 87.537 34.7589 83.6984 36.5877H83.6998Z" fill="black"/>
<path d="M65.7614 23.3968C65.0995 23.7165 64.4362 24.039 63.7743 24.3586C63.7431 24.814 63.4532 28.3358 60.5735 30.1844C60.3218 30.3457 58.9951 31.1731 57.0871 31.2466C55.1395 31.3216 53.7279 30.5705 52.9981 30.1703C50.8214 28.9765 49.762 27.2043 49.3094 26.425C48.3236 24.7263 48.0153 23.1069 47.9092 22.0687C52.3376 19.933 56.7632 17.7973 61.1916 15.6616C61.2977 16.6913 61.6499 18.6856 63.043 20.6911C63.9652 22.0206 65.0161 22.8806 65.7614 23.394V23.3968Z" fill="#CED0D6"/>
<path d="M56.8231 31.5357C54.8953 31.5357 53.4824 30.7592 52.8615 30.4198C50.5744 29.1652 49.4769 27.2799 49.0653 26.5699C48.2746 25.2078 47.7909 23.7043 47.6283 22.1004C47.617 21.9816 47.6792 21.8685 47.7867 21.8176L61.0691 15.4104C61.1525 15.3708 61.2487 15.3737 61.3293 15.4175C61.41 15.4628 61.4637 15.5434 61.4722 15.6353C61.5995 16.8687 62.0167 18.7201 63.2741 20.5333C63.987 21.5601 64.8766 22.4455 65.9204 23.1655C66.0039 23.222 66.0491 23.3196 66.042 23.42C66.035 23.5205 65.9742 23.6096 65.8836 23.6534L64.0421 24.5445C63.9516 25.5034 63.4481 28.6759 60.7254 30.424C60.2445 30.7338 58.9277 31.4594 57.0961 31.5315C57.0028 31.5343 56.9108 31.5371 56.8203 31.5371L56.8231 31.5357ZM48.2138 22.2376C48.3864 23.6874 48.8376 25.048 49.5547 26.2842C49.945 26.9574 50.9846 28.7438 53.1344 29.9233C53.7935 30.2854 55.1655 31.0393 57.0777 30.9657C58.8174 30.8978 60.0776 30.1694 60.4227 29.9474C63.1044 28.2247 63.4509 24.9744 63.4933 24.3408C63.5004 24.239 63.5612 24.1499 63.6518 24.1046L65.2118 23.3493C64.2783 22.645 63.4721 21.8077 62.8102 20.8558C61.6136 19.1302 61.1384 17.3722 60.9588 16.0908L48.2124 22.239L48.2138 22.2376Z" fill="black"/>
</svg>
