<svg width="184" height="24" viewBox="0 0 184 24" fill="none" xmlns="http://www.w3.org/2000/svg">
<g clip-path="url(#clip0_3185_7849)">
<path d="M14.5155 0.756632L13.2751 7.77265H8.96915C4.952 7.77265 1.12301 11.0187 0.413327 15.0251L0.112941 16.7305C-0.593431 20.737 2.08685 23.983 6.104 23.983H9.69533C12.6232 23.983 15.4124 21.6192 15.9274 18.6992L19.2348 0L14.5155 0.756632ZM11.4602 18.0374C11.3018 18.9395 10.4875 19.6737 9.5831 19.6737H7.40124C5.59567 19.6737 4.38756 18.2119 4.70443 16.4078L4.89259 15.3445C5.21276 13.5437 6.93581 12.0787 8.74138 12.0787H12.5137L11.4602 18.0374ZM47.677 23.9827L50.5025 7.99616H54.9718L52.1463 23.9827H47.6735H47.677ZM48.1604 8.1805C47.9363 9.44851 47.7113 10.7165 47.4873 11.9846C45.37 11.3283 43.1854 11.5373 42.5142 11.6708C41.7894 15.7757 41.0636 19.8817 40.3378 23.9866H35.8655C36.4729 20.5519 38.5477 8.82195 38.5477 8.82195C40.0023 8.2212 43.5744 7.00197 48.1604 8.1805ZM30.0392 7.76993H26.5602C23.1702 7.76993 19.9388 10.509 19.3412 13.8899L18.6382 17.8635C18.0407 21.2445 20.3018 23.9836 23.6918 23.9836H31.0923L31.8515 19.6874H24.8965C23.7677 19.6874 23.0118 18.7754 23.2132 17.6462L23.2363 17.5113H34.4493L35.0896 13.8899C35.687 10.509 33.426 7.76993 30.036 7.76993H30.0392ZM30.6037 13.5476L30.5773 13.778H23.9097L23.946 13.5739C24.1472 12.448 25.1772 11.4571 26.3093 11.4571H28.9137C30.0327 11.4571 30.7887 12.4315 30.6037 13.5476ZM72.4101 7.99616C70.8865 12.0361 67.395 18.9084 64.0127 23.9827H59.5401C57.9876 19.1532 56.985 12.4241 56.7938 7.99616H61.2665C61.3472 9.44052 61.9955 14.7979 62.7354 18.5407C64.7647 14.8995 67.0019 10.1224 67.9341 7.99616H72.4101Z" fill="#FF444F"/>
<path d="M92.3254 24C91.9869 23.1062 91.6683 22.2323 91.3695 21.3782C91.0708 20.5043 90.7621 19.6204 90.4435 18.7266H81.0636L79.1816 24H76.1645C76.9611 21.8152 77.7079 19.7992 78.4049 17.952C79.102 16.085 79.7791 14.3172 80.4362 12.6488C81.1134 10.9804 81.7805 9.39145 82.4377 7.88193C83.0949 6.35255 83.782 4.84303 84.4989 3.35338H87.1575C87.8745 4.84303 88.5615 6.35255 89.2187 7.88193C89.8759 9.39145 90.5331 10.9804 91.1903 12.6488C91.8674 14.3172 92.5545 16.085 93.2515 17.952C93.9485 19.7992 94.6953 21.8152 95.4919 24H92.3254ZM89.6071 16.3432C88.9698 14.6152 88.3325 12.9468 87.6952 11.3379C87.0779 9.70924 86.4306 8.15007 85.7535 6.66041C85.0565 8.15007 84.3894 9.70924 83.7521 11.3379C83.1347 12.9468 82.5174 14.6152 81.9 16.3432H89.6071Z" fill="#181C25"/>
<path d="M102.604 3.14483C105.512 3.14483 107.742 3.70096 109.295 4.81324C110.869 5.90565 111.655 7.54427 111.655 9.7291C111.655 10.9208 111.436 11.9437 110.998 12.7978C110.58 13.632 109.963 14.3172 109.146 14.8535C108.35 15.3699 107.374 15.7473 106.219 15.9857C105.064 16.224 103.759 16.3432 102.305 16.3432H100.005V24H97.1076V3.65131C97.9241 3.45269 98.8302 3.32359 99.826 3.264C100.842 3.18455 101.768 3.14483 102.604 3.14483ZM102.843 5.67724C101.608 5.67724 100.662 5.70703 100.005 5.76662V13.8703H102.186C103.182 13.8703 104.078 13.8108 104.874 13.6916C105.671 13.5526 106.338 13.3341 106.876 13.0361C107.433 12.7183 107.862 12.2913 108.16 11.755C108.459 11.2188 108.608 10.5335 108.608 9.69931C108.608 8.90483 108.449 8.24938 108.13 7.73297C107.832 7.21655 107.414 6.80938 106.876 6.51145C106.358 6.19365 105.751 5.97517 105.054 5.856C104.357 5.73683 103.62 5.67724 102.843 5.67724Z" fill="#181C25"/>
<path d="M114.087 3.35338H116.985V24H114.087V3.35338Z" fill="#181C25"/>
</g>
<path d="M125 10C125 5.58172 128.582 2 133 2H176C180.418 2 184 5.58172 184 10V14C184 18.4183 180.418 22 176 22H133C128.582 22 125 18.4183 125 14V10Z" fill="#181C25"/>
<path d="M133.861 16V7.27273H135.442V14.6747H139.286V16H133.861ZM143.487 16.1278C142.831 16.1278 142.264 15.9915 141.787 15.7188C141.313 15.4432 140.947 15.054 140.692 14.5511C140.436 14.0455 140.308 13.4503 140.308 12.7656C140.308 12.0923 140.436 11.5014 140.692 10.9929C140.95 10.4815 141.311 10.0838 141.774 9.79972C142.237 9.51278 142.781 9.36932 143.406 9.36932C143.81 9.36932 144.19 9.43466 144.548 9.56534C144.909 9.69318 145.227 9.89205 145.503 10.1619C145.781 10.4318 146 10.7756 146.159 11.1932C146.318 11.608 146.398 12.1023 146.398 12.6761V13.1491H141.033V12.1094H144.919C144.916 11.8139 144.852 11.5511 144.727 11.321C144.602 11.0881 144.428 10.9048 144.203 10.7713C143.982 10.6378 143.723 10.571 143.428 10.571C143.112 10.571 142.835 10.6477 142.597 10.8011C142.358 10.9517 142.172 11.1506 142.038 11.3977C141.908 11.642 141.841 11.9105 141.838 12.2031V13.1108C141.838 13.4915 141.908 13.8182 142.047 14.0909C142.186 14.3608 142.381 14.5682 142.631 14.7131C142.881 14.8551 143.173 14.9261 143.509 14.9261C143.733 14.9261 143.936 14.8949 144.118 14.8324C144.3 14.767 144.457 14.6719 144.591 14.5469C144.724 14.4219 144.825 14.267 144.893 14.0824L146.334 14.2443C146.243 14.625 146.07 14.9574 145.814 15.2415C145.561 15.5227 145.237 15.7415 144.842 15.8977C144.447 16.0511 143.996 16.1278 143.487 16.1278ZM150.549 18.5909C149.995 18.5909 149.52 18.5156 149.122 18.3651C148.724 18.2173 148.404 18.0185 148.163 17.7685C147.922 17.5185 147.754 17.2415 147.66 16.9375L149.049 16.6009C149.112 16.7287 149.203 16.8551 149.322 16.9801C149.441 17.108 149.602 17.2131 149.804 17.2955C150.008 17.3807 150.265 17.4233 150.575 17.4233C151.012 17.4233 151.375 17.3168 151.662 17.1037C151.949 16.8935 152.092 16.5469 152.092 16.0639V14.8239H152.015C151.936 14.983 151.819 15.1463 151.666 15.3139C151.515 15.4815 151.315 15.6222 151.065 15.7358C150.818 15.8494 150.507 15.9062 150.132 15.9062C149.629 15.9062 149.173 15.7884 148.764 15.5526C148.358 15.3139 148.034 14.9588 147.792 14.4872C147.554 14.0128 147.434 13.419 147.434 12.706C147.434 11.9872 147.554 11.3807 147.792 10.8864C148.034 10.3892 148.359 10.0128 148.768 9.7571C149.177 9.49858 149.633 9.36932 150.136 9.36932C150.52 9.36932 150.835 9.43466 151.082 9.56534C151.332 9.69318 151.531 9.84801 151.679 10.0298C151.826 10.2088 151.939 10.3778 152.015 10.5369H152.1V9.45455H153.622V16.1065C153.622 16.6662 153.488 17.1293 153.221 17.4957C152.954 17.8622 152.589 18.1364 152.126 18.3182C151.663 18.5 151.137 18.5909 150.549 18.5909ZM150.562 14.696C150.889 14.696 151.167 14.6165 151.397 14.4574C151.627 14.2983 151.802 14.0696 151.922 13.7713C152.041 13.473 152.1 13.1151 152.1 12.6974C152.1 12.2855 152.041 11.9247 151.922 11.6151C151.805 11.3054 151.632 11.0653 151.402 10.8949C151.174 10.7216 150.895 10.6349 150.562 10.6349C150.218 10.6349 149.931 10.7244 149.701 10.9034C149.471 11.0824 149.298 11.3281 149.181 11.6406C149.065 11.9503 149.007 12.3026 149.007 12.6974C149.007 13.098 149.065 13.4489 149.181 13.75C149.301 14.0483 149.475 14.2812 149.706 14.4489C149.939 14.6136 150.224 14.696 150.562 14.696ZM157.086 16.1321C156.672 16.1321 156.298 16.0582 155.966 15.9105C155.636 15.7599 155.375 15.5384 155.181 15.2457C154.991 14.9531 154.896 14.5923 154.896 14.1634C154.896 13.794 154.964 13.4886 155.1 13.2472C155.237 13.0057 155.423 12.8125 155.659 12.6676C155.895 12.5227 156.16 12.4134 156.456 12.3395C156.754 12.2628 157.062 12.2074 157.38 12.1733C157.764 12.1335 158.075 12.098 158.314 12.0668C158.552 12.0327 158.725 11.9815 158.833 11.9134C158.944 11.8423 159 11.733 159 11.5852V11.5597C159 11.2386 158.904 10.9901 158.714 10.8139C158.524 10.6378 158.25 10.5497 157.892 10.5497C157.514 10.5497 157.214 10.6321 156.993 10.7969C156.774 10.9616 156.626 11.1562 156.549 11.3807L155.109 11.1761C155.223 10.7784 155.41 10.446 155.672 10.179C155.933 9.90909 156.252 9.70739 156.63 9.57386C157.008 9.4375 157.426 9.36932 157.883 9.36932C158.199 9.36932 158.512 9.40625 158.825 9.48011C159.137 9.55398 159.423 9.67614 159.681 9.84659C159.94 10.0142 160.147 10.2429 160.304 10.5327C160.463 10.8224 160.542 11.1847 160.542 11.6193V16H159.059V15.1009H159.008C158.914 15.2827 158.782 15.4531 158.612 15.6122C158.444 15.7685 158.233 15.8949 157.977 15.9915C157.724 16.0852 157.427 16.1321 157.086 16.1321ZM157.487 14.9986C157.797 14.9986 158.065 14.9375 158.292 14.8153C158.52 14.6903 158.694 14.5256 158.816 14.321C158.941 14.1165 159.004 13.8935 159.004 13.652V12.8807C158.956 12.9205 158.873 12.9574 158.757 12.9915C158.643 13.0256 158.515 13.0554 158.373 13.081C158.231 13.1065 158.091 13.1293 157.951 13.1491C157.812 13.169 157.691 13.1861 157.589 13.2003C157.359 13.2315 157.153 13.2827 156.971 13.3537C156.789 13.4247 156.646 13.5241 156.541 13.652C156.436 13.777 156.383 13.9389 156.383 14.1378C156.383 14.4219 156.487 14.6364 156.694 14.7812C156.902 14.9261 157.166 14.9986 157.487 14.9986ZM164.949 16.1278C164.295 16.1278 163.734 15.9844 163.265 15.6974C162.799 15.4105 162.44 15.0142 162.187 14.5085C161.937 14 161.812 13.4148 161.812 12.7528C161.812 12.0881 161.94 11.5014 162.196 10.9929C162.451 10.4815 162.812 10.0838 163.278 9.79972C163.747 9.51278 164.301 9.36932 164.94 9.36932C165.471 9.36932 165.941 9.46733 166.35 9.66335C166.762 9.85653 167.091 10.1307 167.335 10.4858C167.579 10.8381 167.718 11.25 167.752 11.7216H166.278C166.218 11.4062 166.076 11.1435 165.852 10.9332C165.63 10.7202 165.333 10.6136 164.961 10.6136C164.646 10.6136 164.369 10.6989 164.13 10.8693C163.892 11.0369 163.706 11.2784 163.572 11.5938C163.441 11.9091 163.376 12.2869 163.376 12.7273C163.376 13.1733 163.441 13.5568 163.572 13.8778C163.703 14.196 163.886 14.4418 164.122 14.6151C164.36 14.7855 164.64 14.8707 164.961 14.8707C165.189 14.8707 165.392 14.8281 165.571 14.7429C165.752 14.6548 165.904 14.5284 166.027 14.3636C166.149 14.1989 166.233 13.9986 166.278 13.7628H167.752C167.716 14.2259 167.579 14.6364 167.343 14.9943C167.108 15.3494 166.787 15.6278 166.38 15.8295C165.974 16.0284 165.497 16.1278 164.949 16.1278ZM169.978 18.4545C169.768 18.4545 169.573 18.4375 169.394 18.4034C169.218 18.3722 169.077 18.3352 168.972 18.2926L169.33 17.0909C169.555 17.1563 169.755 17.1875 169.931 17.1847C170.107 17.1818 170.262 17.1264 170.396 17.0185C170.532 16.9134 170.647 16.7372 170.741 16.4901L170.873 16.1364L168.499 9.45455H170.136L171.644 14.3977H171.712L173.225 9.45455H174.866L172.245 16.7926C172.123 17.1392 171.961 17.4361 171.759 17.6832C171.558 17.9332 171.31 18.1236 171.018 18.2543C170.728 18.3878 170.381 18.4545 169.978 18.4545Z" fill="white"/>
<defs>
<clipPath id="clip0_3185_7849">
<rect width="117" height="24" fill="white"/>
</clipPath>
</defs>
</svg>
