<svg width="120" height="26" viewBox="0 0 120 26" fill="none" xmlns="http://www.w3.org/2000/svg">
<g clip-path="url(#clip0_14531_9929)">
<path d="M14.8877 1.43728L13.6155 8.65233H9.19913C5.07897 8.65233 1.1518 11.9904 0.423925 16.1106L0.115837 17.8643C-0.608647 21.9844 2.14036 25.3226 6.26051 25.3226H9.94393C12.9469 25.3226 15.8076 22.8917 16.3357 19.8889L19.728 0.65918L14.8877 1.43728ZM11.7541 19.2083C11.5916 20.136 10.7564 20.891 9.82883 20.891H7.59101C5.73915 20.891 4.50007 19.3877 4.82506 17.5325L5.01804 16.439C5.34642 14.5871 7.11365 13.0806 8.96552 13.0806H12.8346L11.7541 19.2083ZM48.8995 25.3222L51.7974 8.88218H56.3813L53.4834 25.3222H48.8959H48.8995ZM49.3952 9.07175C49.1655 10.3757 48.9347 11.6797 48.7049 12.9837C46.5333 12.3089 44.2927 12.5238 43.6043 12.661C42.861 16.8825 42.1165 21.1049 41.3721 25.3263H36.7852C37.4081 21.7941 39.5361 9.7314 39.5361 9.7314C41.028 9.1136 44.6917 7.85979 49.3952 9.07175ZM30.8095 8.64954H27.2412C23.7643 8.64954 20.45 11.4663 19.8372 14.9432L19.1161 19.0295C18.5033 22.5063 20.8224 25.3231 24.2993 25.3231H31.8896L32.6682 20.9051H25.5349C24.3771 20.9051 23.6018 19.9672 23.8084 18.806L23.8321 18.6672H35.3326L35.9894 14.9432C36.602 11.4663 34.283 8.64954 30.8061 8.64954H30.8095ZM31.3884 14.5911L31.3614 14.828H24.5228L24.56 14.6182C24.7664 13.4603 25.8228 12.4413 26.9839 12.4413H29.6551C30.8028 12.4413 31.5781 13.4434 31.3884 14.5911ZM74.2668 8.88218C72.7042 13.0367 69.123 20.104 65.654 25.3222H61.0668C59.4745 20.3557 58.4462 13.4357 58.25 8.88218H62.8374C62.9202 10.3675 63.5851 15.8769 64.344 19.7258C66.4253 15.9814 68.7199 11.0687 69.676 8.88218H74.2668Z" fill="#FF444F"/>
<path d="M94.6928 25.34C94.3455 24.4209 94.0187 23.5222 93.7123 22.6439C93.406 21.7451 93.0894 20.8362 92.7626 19.9171H83.1421L81.2119 25.34H78.1175C78.9345 23.0932 79.7004 21.02 80.4153 19.1205C81.1302 17.2005 81.8247 15.3826 82.4987 13.6668C83.1932 11.9511 83.8774 10.3171 84.5515 8.76471C85.2255 7.19195 85.9302 5.6396 86.6655 4.10769H89.3923C90.1277 5.6396 90.8323 7.19195 91.5064 8.76471C92.1804 10.3171 92.8545 11.9511 93.5285 13.6668C94.223 15.3826 94.9277 17.2005 95.6426 19.1205C96.3575 21.02 97.1234 23.0932 97.9404 25.34H94.6928ZM91.9047 17.466C91.2511 15.689 90.5974 13.9732 89.9438 12.3188C89.3106 10.6439 88.6468 9.04046 87.9523 7.50854C87.2374 9.04046 86.5532 10.6439 85.8996 12.3188C85.2664 13.9732 84.6332 15.689 84 17.466H91.9047Z" fill="#414652"/>
<path d="M105.235 3.89322C108.217 3.89322 110.505 4.46514 112.098 5.60897C113.712 6.73237 114.518 8.41748 114.518 10.6643C114.518 11.8898 114.294 12.9417 113.844 13.82C113.415 14.6779 112.782 15.3826 111.945 15.9341C111.128 16.4651 110.127 16.8532 108.942 17.0983C107.758 17.3434 106.42 17.466 104.929 17.466H102.569V25.34H99.5975V4.41407C100.435 4.20982 101.364 4.07705 102.386 4.01577C103.427 3.93407 104.377 3.89322 105.235 3.89322ZM105.48 6.49748C104.214 6.49748 103.243 6.52812 102.569 6.58939V14.923H104.806C105.827 14.923 106.746 14.8617 107.563 14.7392C108.381 14.5962 109.065 14.3715 109.616 14.0651C110.188 13.7383 110.627 13.2992 110.934 12.7477C111.24 12.1962 111.393 11.4915 111.393 10.6336C111.393 9.81663 111.23 9.14258 110.903 8.61152C110.597 8.08046 110.168 7.66173 109.616 7.35535C109.085 7.02854 108.462 6.80386 107.747 6.68131C107.032 6.55875 106.277 6.49748 105.48 6.49748Z" fill="#414652"/>
<path d="M117.012 4.10769H119.984V25.34H117.012V4.10769Z" fill="#414652"/>
</g>
<defs>
<clipPath id="clip0_14531_9929">
<rect width="120" height="24.6809" fill="white" transform="translate(0 0.65918)"/>
</clipPath>
</defs>
</svg>
