<svg width="68" height="64" viewBox="0 0 68 64" fill="none" xmlns="http://www.w3.org/2000/svg">
<path d="M34 4C23.875 4 14.75 9.375 9.75 18C4.625 26.75 4.625 37.375 9.75 46C14.75 54.75 23.875 60 34 60C44 60 53.125 54.75 58.125 46C63.25 37.375 63.25 26.75 58.125 18C53.125 9.375 44 4 34 4ZM34 64C22.5 64 12 58 6.25 48C0.5 38.125 0.5 26 6.25 16C12 6.125 22.5 0 34 0C45.375 0 55.875 6.125 61.625 16C67.375 26 67.375 38.125 61.625 48C55.875 58 45.375 64 34 64ZM34 16C35 16 36 17 36 18V34C36 35.125 35 36 34 36C32.875 36 32 35.125 32 34V18C32 17 32.875 16 34 16ZM37 44C37 45.75 35.625 47 34 47C32.25 47 31 45.75 31 44C31 42.375 32.25 41 34 41C35.625 41 37 42.375 37 44Z" fill="#C47D00"/>
</svg>
