<svg width="96" height="96" viewBox="0 0 96 96" fill="none" xmlns="http://www.w3.org/2000/svg">
<path d="M48 20C42.9167 20.0833 38.25 21.3333 34 23.75C29.75 26.25 26.3333 29.6667 23.75 34C21.25 38.4167 20 43.0833 20 48C20 52.9167 21.25 57.5833 23.75 62C26.3333 66.3333 29.75 69.75 34 72.25C38.25 74.6667 42.9167 75.9167 48 76C53.0833 75.9167 57.75 74.6667 62 72.25C66.25 69.75 69.6667 66.3333 72.25 62C74.75 57.5833 76 52.9167 76 48C76 43.0833 74.75 38.4167 72.25 34C69.6667 29.6667 66.25 26.25 62 23.75C57.75 21.3333 53.0833 20.0833 48 20ZM48 80C42.1667 79.9167 36.8333 78.5 32 75.75C27.1667 72.9167 23.25 69 20.25 64C17.4167 58.9167 16 53.5833 16 48C16 42.4167 17.4167 37.0833 20.25 32C23.25 27 27.1667 23.0833 32 20.25C36.8333 17.5 42.1667 16.0833 48 16C53.8333 16.0833 59.1667 17.5 64 20.25C68.8333 23.0833 72.75 27 75.75 32C78.5833 37.0833 80 42.4167 80 48C80 53.5833 78.5833 58.9167 75.75 64C72.75 69 68.8333 72.9167 64 75.75C59.1667 78.5 53.8333 79.9167 48 80ZM48 32C49.25 32.0833 49.9167 32.75 50 34V50C49.9167 51.25 49.25 51.9167 48 52C46.75 51.9167 46.0833 51.25 46 50V34C46.0833 32.75 46.75 32.0833 48 32ZM51 60C50.8333 61.8333 49.8333 62.8333 48 63C46.1667 62.8333 45.1667 61.8333 45 60C45.1667 58.1667 46.1667 57.1667 48 57C49.8333 57.1667 50.8333 58.1667 51 60Z" fill="black" fill-opacity="0.72"/>
</svg>
