<svg width="120" height="152" viewBox="0 0 120 152" fill="none" xmlns="http://www.w3.org/2000/svg">
<path d="M33.0586 89.6016C26.1437 94.1559 19.2274 98.7087 12.3125 103.263C13.3337 105.153 14.6165 107.253 16.2261 109.442C17.6984 111.447 19.1779 113.164 20.5597 114.613L37.1065 95.2987C36.4107 94.5434 35.6639 93.6495 34.9227 92.6099C34.1646 91.5449 33.5522 90.5252 33.0586 89.6016Z" fill="#FF7E88"/>
<path d="M20.5614 114.897C20.4836 114.897 20.41 114.866 20.3563 114.809C18.8005 113.175 17.3352 111.427 16 109.61C14.5517 107.638 13.2278 105.548 12.0652 103.396C11.9959 103.268 12.0355 103.106 12.1585 103.026L32.9046 89.3643C32.9711 89.3205 33.0531 89.3064 33.1295 89.3262C33.2059 89.346 33.2724 89.3969 33.3091 89.4676C33.8579 90.4944 34.4774 91.4972 35.1535 92.4449C35.814 93.3727 36.541 94.268 37.3147 95.1067C37.4122 95.2128 37.4151 95.374 37.3217 95.4829L20.7749 114.798C20.7226 114.858 20.6476 114.894 20.567 114.897C20.5642 114.897 20.5614 114.897 20.5599 114.897H20.5614ZM12.6875 103.355C13.8077 105.403 15.075 107.393 16.4568 109.275C17.7156 110.989 19.0918 112.641 20.5515 114.191L36.7305 95.3047C36.0049 94.5028 35.3204 93.6527 34.6952 92.7744C34.0658 91.8904 33.4831 90.9612 32.9598 90.0079L12.6875 103.357V103.355Z" fill="black"/>
<path d="M40.5993 98.3809C36.1808 105.857 31.7623 113.335 27.3438 120.811C28.686 121.939 30.3069 123.151 32.2219 124.319C34.6617 125.807 36.9643 126.852 38.9317 127.593C41.4055 118.997 43.8792 110.399 46.353 101.802C45.411 101.395 44.3615 100.874 43.2583 100.211C42.2414 99.6001 41.356 98.9735 40.5993 98.3809Z" fill="#FF7E88"/>
<path d="M38.9339 127.876C38.9 127.876 38.866 127.871 38.8335 127.858C36.487 126.974 34.2141 125.864 32.077 124.559C30.36 123.511 28.7066 122.323 27.1635 121.026C27.0574 120.937 27.0319 120.785 27.1012 120.666L40.3568 98.2351C40.3978 98.1644 40.4685 98.1163 40.5477 98.1007C40.6283 98.0852 40.7104 98.1064 40.774 98.1559C41.6099 98.8107 42.4939 99.4189 43.4048 99.9663C44.3863 100.556 45.416 101.085 46.4669 101.54C46.597 101.597 46.6663 101.741 46.6267 101.879L39.2055 127.67C39.1843 127.746 39.1305 127.808 39.0612 127.844C39.0216 127.863 38.9778 127.873 38.9339 127.873V127.876ZM27.7108 120.748C29.179 121.966 30.7461 123.086 32.3712 124.077C34.3909 125.309 36.5337 126.366 38.7458 127.22L46.0129 101.962C45.0186 101.521 44.0441 101.014 43.112 100.454C42.2747 99.9507 41.4572 99.3949 40.6793 98.8008L27.7094 120.748H27.7108Z" fill="black"/>
<path d="M56.9889 103.332C58.0455 112.453 59.1006 121.573 60.1571 130.694C58.2633 130.917 55.9833 131.04 53.4148 130.887C51.0896 130.748 49.0345 130.414 47.3047 130.028C48.3895 121.01 49.4743 111.991 50.5592 102.973C51.4672 103.132 52.4827 103.263 53.5944 103.332C54.8391 103.41 55.9791 103.394 56.9889 103.332Z" fill="#FF7E88"/>
<path d="M55.6856 131.238C54.9219 131.238 54.1595 131.215 53.4 131.17C51.335 131.047 49.2644 130.757 47.2446 130.304C47.1032 130.273 47.0084 130.139 47.0254 129.994L50.2799 102.939C50.2898 102.861 50.3294 102.792 50.3916 102.745C50.4538 102.698 50.5331 102.68 50.6094 102.694C51.5995 102.868 52.6094 102.987 53.6136 103.049C54.7281 103.118 55.8582 103.118 56.9727 103.049C57.1241 103.041 57.2542 103.15 57.2711 103.299L60.4394 130.662C60.4577 130.818 60.346 130.958 60.1918 130.976C58.6997 131.15 57.1919 131.238 55.6856 131.238ZM47.618 129.808C49.5288 130.221 51.4835 130.489 53.4339 130.605C55.5654 130.731 57.7209 130.678 59.8453 130.446L56.7408 103.63C55.6899 103.686 54.6277 103.68 53.5796 103.615C52.6546 103.557 51.724 103.452 50.8074 103.302L47.6194 129.809L47.618 129.808Z" fill="black"/>
<path d="M61.1562 102.561C62.1053 102.247 63.159 101.838 64.2778 101.304C65.3131 100.809 66.2268 100.288 67.0203 99.7861C71.3992 107.719 75.7795 115.654 80.1584 123.587C78.5701 124.61 76.7427 125.672 74.6735 126.689C72.5349 127.741 70.5138 128.56 68.6836 129.205L61.1562 102.561Z" fill="#FF7E88"/>
<path d="M68.6845 129.488C68.6393 129.488 68.5954 129.477 68.5544 129.457C68.4851 129.422 68.4342 129.358 68.413 129.283L60.8857 102.639C60.8447 102.493 60.9253 102.34 61.0695 102.294C62.1204 101.946 63.16 101.527 64.1585 101.049C65.0878 100.604 66.0015 100.099 66.8713 99.5485C66.9378 99.5074 67.017 99.4947 67.0934 99.5131C67.1683 99.5329 67.2334 99.5824 67.2702 99.6503L80.4083 123.451C80.4804 123.582 80.4394 123.746 80.3136 123.826C78.5442 124.966 76.6899 126.016 74.8003 126.944C72.8527 127.901 70.8273 128.753 68.7793 129.472C68.7496 129.484 68.7171 129.488 68.686 129.488H68.6845ZM61.5023 102.744L68.8741 128.837C70.8033 128.147 72.7113 127.34 74.55 126.436C76.3406 125.555 78.1001 124.566 79.7832 123.492L66.9166 100.185C66.1047 100.686 65.2589 101.148 64.4004 101.56C63.4613 102.009 62.4882 102.407 61.5023 102.745V102.744Z" fill="black"/>
<path d="M74.4886 91.7842C74.0246 92.5635 73.4716 93.4008 72.8182 94.2664C71.9752 95.3824 71.1252 96.3272 70.3359 97.115C75.869 104.146 81.402 111.177 86.9351 118.208C88.2816 116.899 89.7313 115.339 91.181 113.509C92.8302 111.428 94.1413 109.423 95.1809 107.625C88.283 102.345 81.3851 97.064 74.4871 91.7842H74.4886Z" fill="#FF7E88"/>
<path d="M86.9367 118.491C86.9367 118.491 86.924 118.491 86.9183 118.491C86.8377 118.485 86.7641 118.447 86.7146 118.383L70.1155 97.2905C70.0264 97.1774 70.0363 97.0161 70.1381 96.9157C71.0193 96.036 71.8453 95.0884 72.5949 94.0969C73.1875 93.3119 73.7448 92.4859 74.2483 91.6401C74.2893 91.5708 74.3586 91.5227 74.4378 91.5071C74.517 91.4916 74.5991 91.5114 74.6627 91.5609L95.3565 107.402C95.4696 107.488 95.5007 107.645 95.43 107.768C94.2377 109.829 92.8841 111.82 91.4061 113.686C90.0907 115.346 88.6537 116.936 87.1347 118.413C87.0824 118.464 87.0102 118.493 86.9381 118.493L86.9367 118.491ZM70.7138 97.1378L86.9636 117.786C88.3822 116.389 89.7258 114.892 90.9606 113.334C92.3707 111.555 93.6649 109.659 94.8134 107.699L74.5694 92.2016C74.0998 92.971 73.5878 93.7221 73.0461 94.4377C72.3318 95.3825 71.5483 96.2906 70.7152 97.1378H70.7138Z" fill="black"/>
<path d="M114.808 85.0205C110.66 85.8819 106.512 86.7432 102.362 87.6032C101.539 87.4688 99.9066 87.0869 98.3295 85.8338C96.4569 84.3459 95.7639 82.5072 95.44 81.6133C94.5121 79.0504 94.8785 76.8737 94.9605 76.4211C95.1401 75.448 95.5559 73.3519 97.3975 71.6023C99.3125 69.782 101.563 69.485 102.31 69.4199C106.459 68.5671 110.611 67.7142 114.76 66.8613C114.482 66.9221 114.118 67.0113 113.701 67.1456C113.388 67.2446 110.947 68.048 109.418 69.6066C106.656 72.4212 107.506 77.0576 107.621 77.6332C107.778 78.4239 108.428 81.708 111.414 83.7037C112.719 84.575 114.005 84.8904 114.808 85.0205Z" fill="#CED0D6"/>
<path d="M102.363 87.8878C102.347 87.8878 102.331 87.8878 102.317 87.8836C101.248 87.7096 99.6569 87.2499 98.1548 86.0562C96.1817 84.489 95.476 82.5414 95.1747 81.7112C94.2964 79.287 94.5382 77.1696 94.6825 76.3719C94.855 75.4356 95.2596 73.2447 97.2029 71.399C99.0246 69.6678 101.152 69.2406 102.269 69.1416L114.704 66.5859C114.856 66.5547 115.006 66.6523 115.038 66.8037C115.071 66.9564 114.973 67.1049 114.822 67.1389C114.461 67.2181 114.123 67.3086 113.789 67.4161C113.518 67.5024 111.102 68.2958 109.621 69.8064C107.034 72.4428 107.733 76.7439 107.898 77.5798C108.548 80.8541 110.255 82.5895 111.572 83.4707C112.545 84.1199 113.649 84.5485 114.854 84.7436C114.989 84.7649 115.089 84.8808 115.092 85.0166C115.095 85.1524 115 85.2726 114.867 85.2995L114.392 85.3985C110.402 86.2273 106.412 87.0547 102.421 87.8821C102.402 87.8864 102.382 87.8878 102.363 87.8878ZM111.351 67.8517L102.367 69.6975C102.355 69.7003 102.346 69.7017 102.334 69.7017C101.296 69.7923 99.2976 70.1869 97.5919 71.8077C95.7815 73.5276 95.401 75.5912 95.2383 76.4724C95.1026 77.2234 94.8749 79.2219 95.7051 81.5174C95.9894 82.3038 96.657 84.1453 98.5041 85.6121C99.8874 86.711 101.353 87.1452 102.355 87.315C106.07 86.5456 109.784 85.7747 113.497 85.0039C112.695 84.7549 111.945 84.3985 111.256 83.9389C109.85 82.9997 108.03 81.1525 107.343 77.6887C107.166 76.8033 106.429 72.2476 109.215 69.4075C109.847 68.7626 110.623 68.2449 111.35 67.8503L111.351 67.8517Z" fill="black"/>
<path d="M114.803 85.0205C114.566 86.8946 114.177 89.0232 113.546 91.3315C112.989 93.3667 112.342 95.1828 111.689 96.7627C107.495 97.6184 103.303 98.4755 99.1094 99.3312C99.7699 97.6962 100.423 95.8504 100.999 93.8066C101.367 92.5054 101.665 91.2565 101.91 90.0698C102.087 89.2141 102.234 88.3896 102.357 87.6032C106.507 86.7432 110.655 85.8819 114.803 85.0205Z" fill="#EBECEE"/>
<path d="M99.1113 99.6144C99.0278 99.6144 98.9486 99.5777 98.8934 99.5126C98.827 99.432 98.81 99.3217 98.8482 99.2255C99.5752 97.425 100.207 95.5764 100.728 93.7306C101.07 92.5199 101.376 91.2696 101.635 90.0137C101.8 89.2145 101.95 88.3885 102.079 87.5611C102.097 87.4451 102.185 87.3518 102.301 87.3278C106.292 86.5003 110.282 85.6729 114.271 84.8441L114.747 84.7451C114.836 84.7267 114.93 84.7522 114.996 84.8144C115.063 84.8766 115.097 84.9672 115.085 85.0577C114.815 87.1877 114.389 89.3249 113.819 91.4082C113.31 93.2667 112.682 95.1054 111.951 96.8734C111.916 96.9597 111.838 97.0233 111.746 97.0431L99.1664 99.6116C99.148 99.6159 99.1282 99.6173 99.1099 99.6173L99.1113 99.6144ZM102.608 87.8412C102.483 88.6134 102.343 89.3814 102.189 90.1282C101.927 91.3969 101.619 92.6614 101.274 93.8848C100.796 95.5849 100.222 97.2864 99.5681 98.9511L111.487 96.517C112.184 94.8141 112.787 93.0461 113.276 91.2583C113.804 89.3291 114.206 87.3532 114.474 85.3802L114.388 85.3985C110.462 86.2132 106.535 87.0293 102.609 87.8426L102.608 87.8412Z" fill="black"/>
<path d="M114.867 66.8372C114.829 66.8456 114.791 66.8527 114.753 66.8612C110.603 67.7141 106.452 68.5669 102.302 69.4198C102.1 68.144 101.842 66.7678 101.513 65.3068C100.971 62.9024 100.234 60.2702 99.227 57.4853C97.5835 52.9423 95.6486 49.1688 93.875 46.2042C98.0686 45.3513 102.261 44.4999 106.454 43.6484C108.23 46.695 110.143 50.5138 111.78 55.0695C113.352 59.4484 114.293 63.4582 114.867 66.8372Z" fill="#EBECEE"/>
<path d="M102.305 69.7029C102.249 69.7029 102.192 69.6859 102.144 69.652C102.081 69.6081 102.038 69.5403 102.025 69.4639C101.809 68.099 101.545 66.7214 101.239 65.3693C100.646 62.7385 99.8812 60.1177 98.9633 57.5817C97.5517 53.678 95.7583 49.8988 93.6339 46.3501C93.5872 46.2709 93.5802 46.1747 93.6184 46.0913C93.6565 46.0078 93.7315 45.947 93.8206 45.9286C98.0142 45.0758 102.206 44.2243 106.4 43.3729C106.52 43.3488 106.641 43.4026 106.701 43.5072C108.826 47.1535 110.625 51.0119 112.048 54.975C113.424 58.8051 114.466 62.7795 115.148 66.7907C115.173 66.9392 115.077 67.0821 114.93 67.1146L114.816 67.1386L102.361 69.6987C102.342 69.7029 102.322 69.7043 102.304 69.7043L102.305 69.7029ZM94.3255 46.4025C96.3792 49.8832 98.1175 53.5776 99.4965 57.3893C100.422 59.948 101.194 62.5914 101.792 65.2448C102.078 66.5121 102.328 67.802 102.537 69.0834L114.545 66.6153C113.869 62.7286 112.851 58.8773 111.517 55.1645C110.128 51.2962 108.379 47.5297 106.315 43.9655C102.318 44.7773 98.3226 45.5892 94.3255 46.401V46.4025Z" fill="black"/>
<path d="M99.1628 45.1332C97.4019 45.491 95.6396 45.8488 93.8787 46.2067C93.371 46.6324 92.5308 47.2307 91.3625 47.6239C88.8506 48.4711 86.6838 47.7399 86.152 47.5447C83.3515 46.5136 82.0927 44.2039 81.6387 43.3708C80.5892 41.4459 80.4916 39.6765 80.4605 38.958C80.4294 38.2451 80.3785 36.7219 81.08 34.944C81.4704 33.9553 81.964 33.2128 82.3374 32.7277C86.5169 31.8762 90.6978 31.0247 94.8773 30.1719C94.5293 30.6612 92.2352 34.0048 93.2946 38.3229C94.4629 43.0795 98.7032 44.9408 99.1628 45.1332Z" fill="#CED0D6"/>
<path d="M88.9101 48.3042C87.6046 48.3042 86.5665 47.9958 86.0573 47.8091C83.1564 46.7413 81.875 44.3906 81.3927 43.5052C80.2895 41.4812 80.2075 39.5902 80.1806 38.9693C80.1509 38.2932 80.0816 36.7091 80.8199 34.8393C81.1424 34.0204 81.5794 33.2524 82.1169 32.5537C82.1579 32.4999 82.2173 32.4631 82.2852 32.449L84.5241 31.9936C87.9582 31.2934 91.3924 30.5947 94.825 29.8932C94.9396 29.8706 95.0556 29.9187 95.1192 30.0163C95.1829 30.1139 95.18 30.2397 95.1122 30.3345C94.6794 30.9427 92.5748 34.1816 93.5733 38.2536C94.6992 42.8362 98.8108 44.6763 99.2761 44.8701C99.3906 44.9181 99.46 45.0355 99.4486 45.1586C99.4373 45.2816 99.3454 45.3835 99.2238 45.4075L94.0089 46.4669C93.2424 47.0991 92.3838 47.5772 91.4574 47.8898C90.5522 48.1953 89.6852 48.3027 88.913 48.3027L88.9101 48.3042ZM82.5002 32.9822C82.0249 33.6159 81.636 34.3103 81.3446 35.0458C80.6516 36.8039 80.7166 38.3031 80.7449 38.9438C80.7732 39.5944 80.8482 41.3242 81.8891 43.2336C82.3432 44.0681 83.551 46.283 86.2525 47.2773C87.0078 47.5545 89.0105 48.1175 91.275 47.3537C92.1575 47.0567 92.9722 46.597 93.6992 45.9874C93.736 45.9577 93.7784 45.9365 93.8251 45.9266L98.2973 45.0186C96.8716 44.2364 93.9637 42.2167 93.0231 38.388C92.149 34.828 93.4616 31.9327 94.2748 30.582C91.0628 31.2369 87.8493 31.8917 84.6359 32.5466L82.5016 32.9808L82.5002 32.9822Z" fill="black"/>
<path d="M94.8882 30.1694C90.7087 31.0223 86.5278 31.8738 82.3483 32.7252C80.0259 30.7833 76.944 28.5472 73.0629 26.5161C68.875 24.3224 65.0024 23.0212 61.9219 22.2235C66.0943 21.3635 70.2681 20.505 74.4419 19.6465C77.1731 20.3452 80.4163 21.413 83.9055 23.082C88.6083 25.3295 92.2518 27.9503 94.8882 30.1694Z" fill="#EBECEE"/>
<path d="M82.3486 33.0091C82.2835 33.0091 82.2185 32.9865 82.1675 32.9426C79.3204 30.5622 76.213 28.4845 72.9331 26.7675C69.4254 24.9302 65.6971 23.4932 61.8528 22.4975C61.7256 22.4649 61.6379 22.3475 61.6407 22.216C61.6435 22.0845 61.7369 21.9727 61.867 21.9458C66.0394 21.0859 70.2132 20.2274 74.3871 19.3689C74.4295 19.3604 74.4733 19.3618 74.5144 19.3717C77.7858 20.209 80.988 21.3716 84.0303 22.8256C87.9849 24.7152 91.7004 27.114 95.0737 29.9512C95.1572 30.0205 95.1925 30.1323 95.1657 30.2369C95.1388 30.3416 95.0539 30.4222 94.9479 30.4448C91.5152 31.145 88.0811 31.8451 84.6469 32.5452L82.408 33.0006C82.3896 33.0049 82.3698 33.0063 82.3514 33.0063L82.3486 33.0091ZM63.1413 22.2613C66.6221 23.2471 69.9982 24.5921 73.1947 26.2654C76.4719 27.9796 79.5764 30.0502 82.4264 32.4207L84.5324 31.9922C87.7741 31.3317 91.0159 30.6711 94.2562 30.0106C91.0413 27.3672 87.5224 25.124 83.7856 23.3376C80.7956 21.9077 77.6514 20.7634 74.4366 19.9374C70.6715 20.7125 66.9064 21.4862 63.1428 22.2613H63.1413Z" fill="black"/>
<path d="M61.162 25.2191C60.9343 25.782 60.6005 26.4482 60.0772 27.1143C59.841 27.4142 58.6204 28.9219 56.3828 29.6701C55.8086 29.8625 54.4395 30.3037 52.7097 30.0096C50.277 29.598 48.8117 28.0209 48.137 27.2939C46.642 25.6872 46.1173 23.9942 45.9603 23.4214C45.7269 22.5685 45.6562 21.8246 45.6406 21.2843C49.8074 20.4498 53.9741 19.6153 58.1409 18.7822C58.2159 19.5813 58.404 20.6124 58.8594 21.7369C59.4874 23.2884 60.3869 24.4341 61.162 25.2191Z" fill="#CED0D6"/>
<path d="M53.8825 30.3918C53.5021 30.3918 53.0947 30.3621 52.6634 30.2886C50.1344 29.86 48.5899 28.1967 47.9308 27.4867C46.5151 25.9648 45.9182 24.334 45.6891 23.4967C45.491 22.7754 45.3807 22.0343 45.3595 21.2931C45.3553 21.1559 45.4514 21.0343 45.5872 21.0074L46.3354 20.8575C50.2533 20.0725 54.1697 19.289 58.0875 18.5054C58.1653 18.4898 58.2473 18.5082 58.3124 18.5563C58.376 18.6044 58.417 18.6765 58.4255 18.7572C58.5189 19.7486 58.7537 20.7161 59.1242 21.6326C59.6334 22.8914 60.3873 24.0314 61.366 25.0228C61.4452 25.1035 61.4693 25.2223 61.4268 25.3269C61.1284 26.0652 60.7607 26.7074 60.3024 27.2915C59.8625 27.8502 58.608 29.2278 56.4751 29.9406C56.0621 30.0792 55.123 30.3932 53.884 30.3932L53.8825 30.3918ZM45.9352 21.5152C45.9705 22.1319 46.0709 22.7471 46.235 23.3482C46.4514 24.1346 47.0115 25.6692 48.3453 27.1034C49.0185 27.829 50.4187 29.3367 52.7581 29.7327C54.4511 30.0213 55.7905 29.5729 56.2941 29.4046C58.2813 28.7398 59.4467 27.4612 59.8555 26.9422C60.2444 26.4471 60.5641 25.9026 60.83 25.2859C59.8625 24.2732 59.1129 23.1177 58.5981 21.8462C58.2459 20.9763 58.0083 20.0612 57.8937 19.1235C54.0777 19.8858 50.2617 20.651 46.4443 21.4148L45.9337 21.5166L45.9352 21.5152Z" fill="black"/>
<path d="M26.3928 39.4043C25.984 40.4325 25.2288 41.813 23.7352 42.8893C21.9573 44.1722 20.1285 44.3079 19.5019 44.3277C16.2574 44.4296 14.0934 42.4042 13.6719 41.9912C17.9122 41.1284 22.1525 40.2671 26.3928 39.4043Z" fill="#CED0D6"/>
<path d="M19.2705 44.6148C16.1914 44.6148 14.0656 42.7719 13.4758 42.1934C13.4008 42.1198 13.3725 42.0109 13.4022 41.9105C13.4319 41.8101 13.514 41.7337 13.6172 41.7139L26.3381 39.127C26.44 39.1058 26.5446 39.1426 26.6111 39.2232C26.6776 39.3024 26.696 39.4127 26.6564 39.5089C26.0553 41.0194 25.1288 42.2344 23.9012 43.1184C22.1954 44.3489 20.419 44.5808 19.5109 44.6105C19.4289 44.6134 19.3483 44.6148 19.2677 44.6148H19.2705ZM14.2791 42.158C15.1561 42.8921 17.0089 44.124 19.4954 44.0462C20.3383 44.0193 21.9875 43.8043 23.5716 42.6615C24.5758 41.9388 25.3636 40.9742 25.9195 39.7918L14.2791 42.1594V42.158Z" fill="black"/>
<path d="M54.9039 48.6093C52.8658 49.6828 50.4076 51.3461 48.1588 53.899C45.115 57.3515 43.9086 60.7771 43.3131 62.5253C41.3613 68.2479 41.8238 73.1614 42.1279 76.0567C42.4249 78.8812 43.0005 81.1923 43.4857 82.8046C39.35 83.6193 35.2144 84.434 31.0787 85.2473C30.2216 82.997 29.1085 79.256 29.1495 74.532C29.1906 69.5972 30.4706 65.9269 30.9868 64.5747C31.8482 62.316 33.6727 57.7065 38.3614 53.8184C43.2141 49.7945 48.2719 48.9204 49.2761 48.7606C51.3213 48.4367 53.2166 48.4339 54.9039 48.6093Z" fill="#CED0D6"/>
<path d="M31.0804 85.5315C30.9644 85.5315 30.8584 85.4607 30.8159 85.349C29.4907 81.8711 28.8358 78.2319 28.8683 74.5304C28.9051 70.1416 29.898 66.6396 30.724 64.4742C31.5062 62.422 33.3392 57.6173 38.182 53.6005C42.708 49.8467 47.4179 48.7704 49.2325 48.4804C51.1193 48.182 53.0386 48.1297 54.9339 48.3277C55.0584 48.3404 55.1588 48.4338 55.1828 48.5554C55.2069 48.6785 55.1475 48.8015 55.0371 48.8595C52.4856 50.2032 50.2438 51.9612 48.3726 54.0856C45.3006 57.5692 44.0969 61.1066 43.5821 62.6157C41.609 68.4005 42.131 73.3608 42.4096 76.0269C42.6472 78.2884 43.1012 80.5415 43.7575 82.7225C43.7801 82.7989 43.7702 82.8809 43.7292 82.9502C43.6882 83.0181 43.6203 83.0662 43.5411 83.0818L43.1861 83.1511C39.1692 83.9431 35.151 84.7338 31.1342 85.5244C31.1158 85.5286 31.0974 85.5301 31.079 85.5301L31.0804 85.5315ZM52.6709 48.7775C51.5507 48.7775 50.4319 48.8652 49.3216 49.0405C47.5537 49.322 42.9626 50.3729 38.5427 54.0361C33.813 57.9582 32.0182 62.6652 31.2516 64.6751C30.4411 66.7966 29.468 70.2279 29.4327 74.5333C29.4016 78.0848 30.0168 81.5783 31.2601 84.9219C35.1991 84.1468 39.1381 83.3717 43.0772 82.5952L43.1267 82.5853C42.5072 80.4638 42.0772 78.2785 41.8467 76.0848C41.5624 73.3763 41.032 68.3341 43.0461 62.4319C43.5708 60.8902 44.8013 57.2793 47.9469 53.7094C49.6583 51.766 51.6738 50.1211 53.9452 48.8114C53.5209 48.7859 53.0938 48.7732 52.6681 48.7732L52.6709 48.7775Z" fill="black"/>
<path d="M31.0835 85.2483L8.36719 94.586L20.7939 92.1038C28.3594 89.0049 35.9249 85.9046 43.4904 82.8057C39.3548 83.6203 35.2191 84.4336 31.0835 85.2483Z" fill="#CED0D6"/>
<path d="M8.36837 94.8693C8.24531 94.8693 8.13499 94.7901 8.09822 94.6685C8.05579 94.5284 8.12651 94.3799 8.26087 94.3248L30.9772 84.987C30.9942 84.98 31.0125 84.9743 31.0295 84.9715L43.4364 82.5289C43.5793 82.5006 43.7193 82.5854 43.7617 82.7255C43.8042 82.8655 43.732 83.014 43.5977 83.0692L20.9012 92.3673C20.8842 92.3743 20.8672 92.38 20.8488 92.3828L8.42211 94.8651C8.40373 94.8693 8.38534 94.8707 8.36695 94.8707L8.36837 94.8693ZM31.1681 85.5203L11.183 93.7364L20.7145 91.8326L40.701 83.6448L31.1681 85.5217V85.5203Z" fill="black"/>
<path d="M31.0816 85.2483C30.2231 82.9966 29.1114 79.2556 29.151 74.533C29.1935 69.5982 30.4721 65.9279 30.9883 64.5758C31.8497 62.317 33.6742 57.7076 38.3629 53.8194C43.217 49.7955 48.2734 48.92 49.279 48.7616C55.7045 47.7419 60.6379 49.9115 62.3776 50.705C67.499 53.0415 70.3561 56.5449 71.8553 58.4261C72.7846 59.5929 75.9188 63.713 77.4463 70.0338C78.7787 75.5499 78.2483 80.0901 77.8989 82.1734C77.5156 84.4619 76.9287 86.3289 76.4351 87.6584C83.9963 91.5494 91.5576 95.4417 99.1188 99.3327C99.7808 97.6976 100.433 95.8519 101.008 93.8081C101.641 91.5692 102.071 89.4815 102.366 87.6047C101.542 87.4703 99.9109 87.0884 98.3325 85.8339C96.4612 84.3459 95.7682 82.5072 95.4443 81.6134C94.5165 79.0505 94.8828 76.8738 94.9648 76.4212C95.143 75.4481 95.5589 73.352 97.4004 71.6024C99.3169 69.7821 101.566 69.4851 102.312 69.4186C101.776 66.0411 100.856 61.9606 99.2376 57.4841C97.5956 52.9411 95.6593 49.1675 93.8857 46.203C93.3779 46.6287 92.5377 47.227 91.3695 47.6202C88.8561 48.466 86.6893 47.7362 86.1575 47.541C83.3584 46.5113 82.0982 44.2003 81.6442 43.3672C80.5947 41.4422 80.4972 39.6728 80.466 38.9543C80.4349 38.2415 80.384 36.7182 81.0855 34.9403C81.4759 33.9503 81.9709 33.2091 82.3429 32.724C80.0205 30.7821 76.9372 28.5459 73.0575 26.5135C68.8681 24.3198 64.997 23.0185 61.9151 22.2208C61.8613 22.7654 61.7453 23.5008 61.4752 24.3367C61.2673 24.9803 60.9151 26.0453 60.0778 27.1117C59.8416 27.4116 58.621 28.9193 56.3834 29.6675C55.8092 29.8599 54.4387 30.2998 52.7089 30.007C50.2776 29.5954 48.8109 28.0184 48.1362 27.2914C46.6426 25.6832 46.1165 23.9916 45.9595 23.4174C45.7261 22.5659 45.6568 21.822 45.6398 21.2803C42.7771 21.7329 39.1323 22.5758 35.1169 24.2151C30.9374 25.9208 27.6405 27.9632 25.2332 29.7057C25.6957 30.3945 26.3025 31.4652 26.6914 32.881C26.9389 33.7805 27.4891 35.8922 26.731 38.4126C26.4552 39.3277 25.8004 41.397 23.7354 42.8849C21.9575 44.1663 20.1287 44.3021 19.5021 44.3219C16.2576 44.4237 14.095 42.3983 13.6721 41.9853C11.9932 44.609 10.163 47.9356 8.58032 51.9496C6.73173 56.6383 5.75581 60.9055 5.22542 64.3297C6.0698 64.498 7.62845 64.928 9.139 66.1471C11.3214 67.9066 11.9946 70.1753 12.2535 71.0989C12.938 73.5288 12.5349 75.5174 12.4133 76.0506C12.2294 76.861 11.8843 78.3065 10.6962 79.7252C9.32711 81.3602 7.65391 81.9853 6.96228 82.2017C6.23104 82.4295 5.58892 82.5115 5.125 82.5412C5.40505 84.3728 5.80673 86.3925 6.38238 88.5509C6.97925 90.7884 7.66381 92.8039 8.35968 94.5818L31.076 85.2441L31.0816 85.2483Z" fill="white"/>
<path d="M99.1164 99.6155C99.0711 99.6155 99.0273 99.6056 98.9863 99.5844L76.3025 87.9101C76.1752 87.8451 76.1172 87.6937 76.1667 87.5594C76.8201 85.8013 77.3081 83.9739 77.6179 82.1268C78.2755 78.1962 78.12 74.0365 77.1695 70.0989C75.7975 64.4188 73.1116 60.4571 71.6322 58.6014C70.2659 56.8858 67.4216 53.3173 62.2577 50.9624C57.9693 49.0063 53.6159 48.3599 49.3204 49.0402C47.5524 49.3203 42.9656 50.3683 38.5414 54.0372C33.8146 57.9565 32.0183 62.6649 31.2503 64.6762C30.4413 66.7977 29.4682 70.229 29.4314 74.5344C29.4003 78.1693 30.0439 81.7392 31.3437 85.1479C31.3988 85.2907 31.3281 85.452 31.1867 85.5099L8.47036 94.8477C8.39964 94.876 8.32185 94.876 8.25113 94.8462C8.18183 94.8165 8.12667 94.76 8.09838 94.6893C7.32613 92.7148 6.65713 90.6767 6.11118 88.6286C5.5822 86.6471 5.15789 84.6146 4.84672 82.5878C4.83541 82.5101 4.85662 82.4294 4.90613 82.3672C4.95563 82.305 5.02918 82.2668 5.10838 82.2625C5.71091 82.2229 6.30778 82.1126 6.87918 81.9358C7.68821 81.6841 9.23129 81.0391 10.4802 79.5483C11.6485 78.1538 11.9667 76.7479 12.1378 75.9926C12.3373 75.1114 12.5834 73.3166 11.9823 71.1795C11.7461 70.3407 11.1181 68.1103 8.96256 66.3706C7.88056 65.4979 6.56944 64.8897 5.17062 64.6111C5.02211 64.5814 4.9231 64.44 4.94573 64.29C5.60625 60.0342 6.73916 55.849 8.31619 51.8492C9.69097 48.3642 11.4123 44.9951 13.4334 41.8368C13.4787 41.7647 13.555 41.718 13.6399 41.7081C13.7234 41.6982 13.8082 41.7279 13.869 41.7873C14.4362 42.3403 16.521 44.1366 19.4926 44.0432C20.3356 44.0164 21.9847 43.8014 23.5688 42.6586C25.5971 41.1961 26.2236 39.117 26.4584 38.3334C27.208 35.8413 26.6338 33.7466 26.416 32.9588C26.1147 31.8626 25.6367 30.8231 24.9959 29.8669C24.9111 29.7411 24.9422 29.5699 25.0652 29.4808C28.1443 27.2518 31.4893 25.3933 35.0083 23.9577C38.4057 22.5702 41.9671 21.5773 45.5935 21.0044C45.6741 20.9917 45.7562 21.0143 45.8184 21.0667C45.8806 21.119 45.9188 21.1954 45.9202 21.276C45.9415 21.9775 46.0447 22.6734 46.23 23.3467C46.4464 24.1331 47.0079 25.6677 48.3402 27.1032C49.0135 27.8288 50.4151 29.3365 52.7531 29.7326C54.4489 30.0197 55.7869 29.5727 56.2905 29.4044C58.2833 28.7383 59.4445 27.4611 59.8519 26.942C60.675 25.8925 61.0187 24.8275 61.2026 24.2547C61.4176 23.5885 61.5604 22.8969 61.6297 22.1968C61.6382 22.1147 61.6821 22.0398 61.7485 21.9931C61.8164 21.9464 61.9013 21.9309 61.9819 21.9507C65.8658 22.9563 69.6337 24.4089 73.1838 26.2673C76.5019 28.0042 79.6432 30.106 82.5187 32.5104C82.6346 32.608 82.6544 32.7791 82.5611 32.8994C82.0548 33.5585 81.6446 34.2812 81.3419 35.0478C80.6489 36.8059 80.7139 38.3051 80.7422 38.9444C80.7705 39.5964 80.8469 41.3262 81.8864 43.2342C82.3405 44.0687 83.5483 46.2836 86.2484 47.2779C87.0037 47.5551 89.0036 48.1195 91.2722 47.3557C92.1548 47.0587 92.9695 46.599 93.6965 45.9894C93.7601 45.9357 93.8436 45.913 93.9256 45.9272C94.0077 45.9413 94.0784 45.9894 94.1208 46.0616C96.2664 49.6484 98.074 53.4616 99.4954 57.3921C100.898 61.2718 101.937 65.3042 102.584 69.3776C102.597 69.4553 102.576 69.5346 102.528 69.5954C102.48 69.6576 102.408 69.6958 102.33 69.7029C101.29 69.7948 99.2918 70.1908 97.5874 71.8089C95.7756 73.5302 95.3966 75.5937 95.2353 76.4735C95.0981 77.2231 94.8676 79.2146 95.7021 81.5172C95.9864 82.3036 96.6525 84.1437 98.5011 85.6118C99.9084 86.7305 101.401 87.1605 102.405 87.3246C102.559 87.3501 102.662 87.4943 102.638 87.6471C102.309 89.7446 101.849 91.8421 101.273 93.8831C100.744 95.7599 100.105 97.6283 99.3738 99.4373C99.3441 99.5109 99.2847 99.5689 99.2097 99.5957C99.1772 99.607 99.1447 99.6141 99.1107 99.6141L99.1164 99.6155ZM76.7848 87.5198L98.9693 98.938C99.6454 97.238 100.238 95.4884 100.734 93.7303C101.279 91.7997 101.719 89.8167 102.041 87.8338C100.985 87.6273 99.5336 87.1506 98.1546 86.0559C96.1816 84.4873 95.4772 82.5426 95.1759 81.7109C94.2948 79.2782 94.538 77.1665 94.6851 76.3717C94.8421 75.5174 95.258 73.2473 97.2041 71.3987C98.8788 69.8075 100.815 69.3182 101.985 69.1711C101.341 65.232 100.327 61.3354 98.9707 57.5831C97.5988 53.7883 95.8633 50.1053 93.8082 46.6301C93.094 47.1832 92.3047 47.6061 91.4589 47.8918C89.0206 48.7135 86.8707 48.1082 86.0589 47.8097C83.1594 46.7433 81.878 44.3912 81.3957 43.5058C80.2938 41.4832 80.2104 39.5922 80.1835 38.9699C80.1538 38.2938 80.0845 36.7097 80.8214 34.8399C81.1099 34.1087 81.4904 33.4142 81.9557 32.7735C79.1666 30.4652 76.1299 28.4455 72.9264 26.768C69.5106 24.9788 65.8898 23.5715 62.1601 22.5815C62.0781 23.2095 61.9395 23.829 61.7457 24.4287C61.5505 25.034 61.187 26.1627 60.3016 27.2914C59.8632 27.85 58.6129 29.2262 56.4743 29.9405C55.934 30.1215 54.4984 30.601 52.6626 30.2912C50.1351 29.8627 48.5906 28.1994 47.9301 27.4894C46.5143 25.9661 45.9174 24.3353 45.6883 23.498C45.52 22.8856 45.4153 22.2533 45.3743 21.6169C41.8978 22.1897 38.4863 23.1543 35.2261 24.4838C31.833 25.8685 28.6026 27.652 25.6197 29.7849C26.2194 30.7283 26.672 31.7452 26.9648 32.8131C27.1925 33.6447 27.7992 35.8526 27.0029 38.5003C26.7526 39.3334 26.0864 41.5454 23.9026 43.1211C22.1969 44.3516 20.4204 44.5835 19.5124 44.6118C16.6836 44.7009 14.6625 43.2667 13.729 42.4323C11.8069 45.4774 10.1634 48.7149 8.84375 52.0613C7.31481 55.9396 6.20594 59.9932 5.54684 64.1175C6.93576 64.4357 8.23416 65.0609 9.31757 65.935C11.6145 67.7878 12.3019 70.229 12.5268 71.031C13.1618 73.2869 12.9016 75.1892 12.6894 76.1227C12.5211 76.8667 12.169 78.4154 10.913 79.9161C9.57216 81.5186 7.91451 82.2102 7.04608 82.4804C6.52842 82.6416 5.99378 82.7505 5.45208 82.8057C5.75475 84.7122 6.15927 86.6231 6.65713 88.4872C7.17337 90.4221 7.79853 92.3485 8.51986 94.2197L30.7157 85.0955C29.4555 81.6996 28.8331 78.1481 28.8643 74.5344C28.901 70.1442 29.8939 66.6436 30.7199 64.4782C31.5035 62.4259 33.3365 57.6198 38.1779 53.6058C42.7096 49.8478 47.4166 48.7729 49.2299 48.4858C53.6371 47.7871 58.098 48.4476 62.4897 50.4518C67.7766 52.8633 70.6775 56.5039 72.0721 58.2535C73.5798 60.1459 76.3195 64.1854 77.7169 69.9716C78.6857 73.9828 78.8441 78.2188 78.1737 82.2243C77.8724 84.0234 77.4043 85.8055 76.7819 87.5254L76.7848 87.5198Z" fill="black"/>
<path d="M71.9977 51.7822C68.4433 61.7182 64.889 71.6528 61.3347 81.5874C61.2781 81.7387 61.1975 81.9396 61.09 82.1715C61.0476 82.2649 60.8594 82.6722 60.5568 83.1757C60.2668 83.6566 59.868 84.3171 59.2485 85.0017C58.2825 86.071 57.2825 86.6367 56.7224 86.9493C55.762 87.4839 54.929 87.7527 54.4962 87.8771C54.1511 87.9761 53.8526 88.0426 53.6277 88.0865C51.9729 88.3891 47.4893 89.2547 45.8359 89.556C46.7737 89.3693 47.7948 89.0284 48.8019 88.4372C50.1526 87.6452 51.0974 86.6268 51.6504 85.9211C52.311 85.0781 52.731 84.2747 52.9955 83.6708C56.5894 73.6103 60.1834 63.5498 63.7773 53.4894C65.575 53.1089 70.2014 52.1627 71.9977 51.7822Z" fill="#FF444F"/>
<path d="M45.8371 89.8401C45.7042 89.8401 45.5854 89.7453 45.5599 89.6095C45.5302 89.4568 45.6306 89.3097 45.782 89.2786C46.8159 89.0721 47.7833 88.7071 48.6602 88.1937C49.9629 87.43 50.885 86.4413 51.4296 85.7469C51.9543 85.0779 52.3928 84.3438 52.7336 83.5659L63.5126 53.3944C63.5451 53.3025 63.6243 53.2332 63.7205 53.2134C64.6116 53.0252 66.2254 52.6915 67.7868 52.369C69.3837 52.0394 71.0342 51.6986 71.9409 51.5062C72.0413 51.485 72.1445 51.5189 72.2124 51.5967C72.2803 51.6745 72.3001 51.782 72.2662 51.8782L61.6032 81.6834C61.5268 81.887 61.4419 82.0893 61.3486 82.2915C61.2821 82.4386 61.094 82.8361 60.8012 83.3226C60.5056 83.8134 60.0997 84.4866 59.4604 85.1924C58.4491 86.3112 57.4166 86.8883 56.8622 87.1966C56.1338 87.6025 55.3644 87.9222 54.5766 88.1499C54.2809 88.2347 53.9797 88.3069 53.6841 88.3649C52.8736 88.5134 51.3574 88.8019 49.8921 89.0805C48.3406 89.3761 46.7367 89.6817 45.8894 89.8358C45.8725 89.8387 45.8555 89.8401 45.8385 89.8401H45.8371ZM63.9921 53.7338L53.264 83.7667C53.264 83.7667 53.2598 83.7795 53.2569 83.7851C52.8963 84.6097 52.4309 85.3862 51.8751 86.0962C51.3009 86.8289 50.3263 87.8727 48.9473 88.6817C48.9459 88.6817 48.9431 88.6831 48.9417 88.6845C49.2217 88.6308 49.5046 88.577 49.7861 88.5233C51.2528 88.2446 52.769 87.9561 53.5794 87.8076C53.8566 87.7539 54.1395 87.6846 54.421 87.6054C55.1678 87.3904 55.8976 87.0863 56.5878 86.7016C57.1139 86.4088 58.0927 85.8614 59.0417 84.812C59.6443 84.1458 60.0332 83.5008 60.3175 83.0298C60.6018 82.556 60.7857 82.1642 60.8352 82.0553C60.9229 81.8644 61.0035 81.6749 61.0728 81.4896L71.5632 52.1639C70.6184 52.3619 69.2408 52.6462 67.9014 52.9234C66.4276 53.2275 64.9057 53.5415 63.9921 53.7353V53.7338Z" fill="black"/>
<path d="M38.4521 67.4685C46.896 62.8096 55.3398 58.1506 63.7822 53.4902L53.0004 83.6716C52.7359 84.2756 52.3159 85.0789 51.6554 85.9219C51.1023 86.6277 50.1561 87.646 48.8068 88.4381C45.5848 90.3277 42.2271 89.6587 41.8707 89.5823C39.0434 88.9741 37.3645 87.2373 36.5187 86.3604C34.2118 83.9715 33.4297 81.2078 33.1638 79.5176C33.0124 78.5572 32.6631 76.1443 33.7097 73.3283C34.9841 69.8984 37.5059 68.081 38.4507 67.4685H38.4521Z" fill="#FF7E88"/>
<path d="M43.7454 90.0362C42.7044 90.0362 41.9732 89.8934 41.8091 89.858C38.8969 89.2328 37.1516 87.4253 36.3142 86.5568C34.0131 84.1736 33.1786 81.4382 32.8844 79.5627C32.7528 78.724 32.3512 76.1739 33.4445 73.2306C34.658 69.9634 37.0045 68.0695 38.2958 67.2322C38.3014 67.228 38.3071 67.2251 38.3128 67.2223L63.6428 53.244C63.7447 53.1874 63.8734 53.2002 63.9625 53.2765C64.0516 53.3529 64.0855 53.476 64.0459 53.5877L53.2641 83.7691C53.2641 83.7691 53.2599 83.7818 53.2571 83.7875C52.895 84.6135 52.4297 85.3914 51.8766 86.0986C51.3024 86.8312 50.3279 87.875 48.9489 88.6841C47.0706 89.7859 45.1343 90.0405 43.7482 90.0405L43.7454 90.0362ZM38.5942 67.7103C37.3595 68.5136 35.1276 70.3198 33.9735 73.4258C32.9311 76.2305 33.3158 78.6717 33.4416 79.4736C33.7245 81.2685 34.5222 83.8865 36.7202 86.1636C37.5815 87.0561 39.184 88.7152 41.9279 89.305C42.29 89.3828 45.5572 90.0136 48.6603 88.1933C49.963 87.4281 50.8852 86.4409 51.4297 85.7464C51.9516 85.0802 52.3915 84.3462 52.7337 83.5668L63.261 54.0997L38.5942 67.7117V67.7103Z" fill="black"/>
</svg>
