<svg width="16" height="24" viewBox="0 0 16 24" fill="none" xmlns="http://www.w3.org/2000/svg">
<g clip-path="url(#clip0_20655_10241)">
<path d="M8 19C8.5 19 9.25 18.5625 9.90625 17.2188C10.2188 16.5938 10.5 15.8438 10.6875 15H5.3125C5.46875 15.8438 5.75 16.5938 6.0625 17.2188C6.71875 18.5625 7.46875 19 8 19ZM5.125 14H10.8438C10.9375 13.375 11 12.7188 11 12C11 11.3125 10.9375 10.6562 10.8438 10H5.125C5.03125 10.6562 5 11.3125 5 12C5 12.7188 5.03125 13.375 5.125 14ZM5.3125 9H10.6875C10.5 8.15625 10.2188 7.4375 9.90625 6.8125C9.25 5.46875 8.5 5 8 5C7.46875 5 6.71875 5.46875 6.0625 6.8125C5.75 7.4375 5.46875 8.15625 5.3125 9ZM11.875 10C11.9375 10.6562 12 11.3125 12 12C12 12.7188 11.9375 13.375 11.875 14H14.6875C14.875 13.375 15 12.7188 15 12C15 11.3125 14.875 10.6562 14.6875 10H11.875ZM14.3125 9C13.5 7.3125 12.0312 6 10.2188 5.375C10.875 6.25 11.4062 7.53125 11.6875 9H14.3125ZM4.28125 9C4.59375 7.53125 5.09375 6.25 5.75 5.375C3.9375 6 2.46875 7.3125 1.65625 9H4.28125ZM1.28125 10C1.09375 10.6562 1 11.3125 1 12C1 12.7188 1.09375 13.375 1.28125 14H4.125C4.03125 13.375 4 12.7188 4 12C4 11.3125 4.03125 10.6562 4.125 10H1.28125ZM10.2188 18.6562C12.0312 18.0312 13.5 16.7188 14.3125 15H11.6875C11.4062 16.5 10.875 17.75 10.2188 18.6562ZM5.75 18.6562C5.09375 17.75 4.59375 16.5 4.28125 15H1.65625C2.46875 16.7188 3.9375 18.0312 5.75 18.6562ZM8 20C5.125 20 2.5 18.5 1.0625 16C-0.375 13.5312 -0.375 10.5 1.0625 8C2.5 5.53125 5.125 4 8 4C10.8438 4 13.4688 5.53125 14.9062 8C16.3438 10.5 16.3438 13.5312 14.9062 16C13.4688 18.5 10.8438 20 8 20Z" fill="black"/>
</g>
<defs>
<clipPath id="clip0_20655_10241">
<rect width="16" height="24" fill="white"/>
</clipPath>
</defs>
</svg>
