<svg width="112" height="24" viewBox="0 0 112 24" fill="none" xmlns="http://www.w3.org/2000/svg">
<g opacity="0.64" clip-path="url(#clip0_20314_50741)">
<path d="M15.0288 0.756632L13.7916 7.77265H9.49711C5.49062 7.77265 1.67178 11.0187 0.963988 15.0251L0.6644 16.7305C-0.0400992 20.737 2.63307 23.983 6.63957 23.983H10.2214C13.1415 23.983 15.9233 21.6192 16.4369 18.6992L19.7355 0L15.0288 0.756632ZM11.9816 18.0374C11.8236 18.9395 11.0115 19.6737 10.1094 19.6737H7.93336C6.13258 19.6737 4.92768 18.2119 5.24371 16.4078L5.43137 15.3445C5.75069 13.5437 7.46917 12.0787 9.26995 12.0787H13.0323L11.9816 18.0374ZM48.1023 23.9827L50.9203 7.99616H55.3777L52.5597 23.9827H48.0988H48.1023ZM48.5844 8.18049C48.361 9.44851 48.1365 10.7165 47.9131 11.9846C45.8014 11.3283 43.6226 11.5373 42.9532 11.6708C42.2303 15.7757 41.5065 19.8817 40.7826 23.9866H36.3222C36.9279 20.5519 38.9972 8.82195 38.9972 8.82195C40.4479 8.2212 44.0106 7.00197 48.5844 8.18049ZM30.5113 7.76993H27.0415C23.6605 7.76993 20.4376 10.5089 19.8417 13.8899L19.1405 17.8635C18.5446 21.2445 20.7998 23.9836 24.1808 23.9836H31.5616L32.3188 19.6874H25.3822C24.2564 19.6874 23.5025 18.7754 23.7033 17.6462L23.7264 17.5113H34.9096L35.5483 13.8899C36.1441 10.5089 33.8891 7.76993 30.5081 7.76993H30.5113ZM31.0743 13.5476L31.048 13.778H24.398L24.4342 13.5739C24.6349 12.448 25.6622 11.4571 26.7912 11.4571H29.3887C30.5048 11.4571 31.2588 12.4315 31.0743 13.5476ZM72.7698 7.99615C71.2503 12.0361 67.7679 18.9084 64.3947 23.9827H59.934C58.3855 19.1532 57.3856 12.4241 57.1949 7.99615H61.6557C61.7362 9.44052 62.3828 14.7979 63.1208 18.5407C65.1447 14.8995 67.376 10.1224 68.3057 7.99615H72.7698Z" fill="#414652"/>
<path d="M74.5955 18.5152L71.9199 23.9866H68.6612C70.702 19.8461 72.7067 16.0359 74.6752 12.5509C76.6436 9.06584 78.5978 5.77596 80.539 2.68123H83.4598C83.8609 4.21984 84.2378 5.77096 84.5907 7.33959C84.9437 8.90823 85.2962 10.5519 85.6485 12.2732C85.9996 13.9944 86.3471 15.8207 86.692 17.7471C87.0357 19.6735 87.3987 21.7525 87.7826 23.9866H84.7704C84.6098 23.0635 84.4615 22.1378 84.3216 21.2046C84.1828 20.2714 84.0352 19.3758 83.8797 18.5152H74.5955ZM83.4556 16.1159C83.1897 14.4572 82.898 12.806 82.5821 11.1674C82.2661 9.52868 81.9119 7.83745 81.5169 6.09369C80.8645 7.13945 80.0555 8.48792 79.0912 10.1366C78.127 11.7878 77.0411 13.7792 75.8314 16.1159H83.4556ZM98.0484 2.46607C100.528 2.46607 102.427 2.93891 103.746 3.8821C105.063 4.82528 105.778 6.19627 105.889 8.00007C105.975 9.39358 105.788 10.5994 105.328 11.6127C104.868 12.6284 104.176 13.4615 103.253 14.1195C102.329 14.775 101.202 15.2603 99.8694 15.578C98.5355 15.8958 97.0393 16.0559 95.3793 16.0559H93.2578L91.8405 23.9866H88.8583L92.606 2.95893C93.454 2.75378 94.3578 2.62118 95.3171 2.55864C96.2766 2.4986 97.1878 2.46607 98.0484 2.46607ZM97.8345 4.98789C96.3784 4.98789 95.5004 5.03042 95.1976 5.11048L93.6887 13.5641H95.6251C96.4869 13.5641 97.363 13.489 98.2553 13.3339C99.1478 13.1813 99.9404 12.9086 100.635 12.5208C101.327 12.1306 101.883 11.5927 102.303 10.9047C102.721 10.2192 102.898 9.33353 102.831 8.24775C102.759 7.07941 102.277 6.2438 101.385 5.74094C100.493 5.23807 99.3093 4.98789 97.8345 4.98789ZM108.429 2.68123H111.411L107.62 23.9866H104.637L108.429 2.68123Z" fill="#414652"/>
</g>
<defs>
<clipPath id="clip0_20314_50741">
<rect width="110.897" height="24" fill="white" transform="translate(0.551758)"/>
</clipPath>
</defs>
</svg>
