<svg width="110" height="118" viewBox="0 0 110 118" fill="none" xmlns="http://www.w3.org/2000/svg">
<path d="M109.411 39.799L99.3701 87.6714C98.5748 91.4656 96.337 94.3664 93.5031 95.8047L93.3238 95.8943L93.301 95.9043L87.5108 98.8008C88.5053 98.2929 89.4257 97.6072 90.2352 96.765C91.729 95.2129 92.8486 93.1301 93.3636 90.6746L94.3311 86.0652L103.405 42.8037C104.793 36.1784 101.284 29.2429 95.6029 27.3906L23.4843 3.86989C22.2337 3.46159 20.9775 3.33355 19.7669 3.45305H19.7654C18.7098 3.55548 17.6869 3.84428 16.7295 4.29953L22.1029 1.62636L22.11 1.62209L23.0646 1.14693L23.076 1.14124C25.052 0.297602 27.2799 0.145378 29.4907 0.866664L101.609 24.386C107.29 26.2369 110.801 33.1737 109.411 39.799Z" fill="#EBECEE"/>
<path d="M87.5113 99.0862C87.4074 99.0862 87.3078 99.0293 87.2566 98.9297C87.1855 98.7902 87.241 98.6195 87.3818 98.5484C88.3535 98.0519 89.244 97.3861 90.0294 96.5681C91.5402 94.9975 92.5958 92.9403 93.0838 90.6157L103.125 42.7433C104.489 36.239 101.073 29.4728 95.5123 27.6603L23.395 4.14101C22.2114 3.75405 20.9993 3.61747 19.7929 3.73698C19.79 3.73698 19.7872 3.73698 19.7843 3.73698C18.7757 3.83514 17.7883 4.11114 16.8494 4.55643C16.7086 4.62329 16.5393 4.56354 16.471 4.42412C16.4027 4.28328 16.461 4.11398 16.6004 4.04569L21.9653 1.37679C21.9653 1.37679 21.9766 1.36968 21.9809 1.36826L22.9355 0.89309C22.9355 0.89309 22.9569 0.881708 22.9625 0.880286C25.0823 -0.0245229 27.3699 -0.122686 29.5779 0.597178L101.697 24.1165C107.525 26.0158 111.11 33.0778 109.689 39.8582L99.6479 87.7305C98.8612 91.4835 96.6675 94.518 93.6315 96.0587L93.421 96.164L87.6393 99.0563C87.598 99.0762 87.5554 99.0862 87.5127 99.0862H87.5113ZM20.6365 3.12666C21.6224 3.12666 22.6069 3.28457 23.5729 3.6004L95.6915 27.1197C101.52 29.019 105.105 36.081 103.684 42.8614L93.6429 90.7337C93.1336 93.1622 92.0268 95.3161 90.4419 96.9636C90.4064 97.0005 90.3722 97.0361 90.3366 97.0717L93.3769 95.5509C96.2577 94.0898 98.3419 91.1961 99.0931 87.6139L109.134 39.7415C110.499 33.2372 107.083 26.471 101.522 24.6571L29.4029 1.13779C27.3315 0.462025 25.1847 0.553076 23.1959 1.40098L22.2441 1.8733C22.2441 1.8733 22.2327 1.88041 22.2285 1.88183L19.6136 3.18214C19.6549 3.17787 19.6961 3.17361 19.7374 3.16934C19.7402 3.16934 19.7431 3.16934 19.7459 3.16934C20.0433 3.14089 20.3392 3.12666 20.6365 3.12666Z" fill="black"/>
<path d="M94.3297 86.0651L93.3623 90.6745C92.8473 93.13 91.7291 95.2128 90.2339 96.7649C89.4244 97.6071 88.5039 98.2942 87.5095 98.8007C85.872 99.6358 84.0382 99.9815 82.1646 99.7297C81.614 99.6557 81.0592 99.5305 80.5072 99.3498L78.083 98.5603L72.472 96.7293L68.3207 95.3749L59.3964 92.4642L48.2328 88.8236L38.4876 85.6454L8.38853 75.8291C2.70929 73.9782 -0.801822 67.0413 0.588113 60.416L1.55552 55.8066L94.3283 86.0622L94.3297 86.0651Z" fill="#EBECEE"/>
<path d="M83.3585 100.096C82.9488 100.096 82.539 100.069 82.1293 100.013C81.5588 99.9377 80.9841 99.8054 80.4207 99.6219L8.30207 76.1026C2.47487 74.2033 -1.11022 67.1412 0.311013 60.3609L1.27842 55.7515C1.29549 55.6718 1.34386 55.6035 1.41499 55.5637C1.4847 55.5238 1.56864 55.5139 1.64546 55.5395L94.4182 85.7951C94.5562 85.8406 94.6387 85.9815 94.6088 86.1237L93.6414 90.7331C93.1321 93.1616 92.0253 95.3155 90.4405 96.9629C89.6111 97.8265 88.6693 98.5307 87.6407 99.0557C86.292 99.7428 84.8324 100.096 83.3585 100.096ZM1.77066 56.1768L0.868693 60.4761C-0.495633 66.9805 2.91874 73.7466 8.4799 75.5605L80.5985 99.0798C81.1292 99.2534 81.6698 99.3772 82.2061 99.4483C83.9731 99.6845 85.7642 99.3729 87.3832 98.5478C88.3549 98.0513 89.2454 97.3855 90.0307 96.5674C91.5416 94.9968 92.5972 92.9397 93.0852 90.6151L94 86.2546L1.77066 56.1768Z" fill="black"/>
<path d="M103.405 42.8036L94.3318 86.0651L1.55762 55.8095L10.6299 12.5479C11.4166 8.79499 13.6146 5.91695 16.4044 4.46158L16.4158 4.45589L16.726 4.30082C17.6834 3.84557 18.7063 3.55535 19.7619 3.45434H19.7633C20.9754 3.33626 22.2302 3.46288 23.4807 3.87118L95.5994 27.3905C101.28 29.2414 104.791 36.1782 103.401 42.8036H103.405Z" fill="white"/>
<path d="M94.3302 86.3503C94.3003 86.3503 94.2704 86.346 94.242 86.3361L1.46919 56.079C1.3312 56.0335 1.24868 55.8927 1.27856 55.7504L10.3508 12.4889C11.1276 8.78429 13.2858 5.76684 16.2733 4.20903C16.2733 4.20903 16.2876 4.20192 16.289 4.2005L16.6006 4.04543C17.6064 3.56742 18.6591 3.27435 19.7361 3.17049C19.7389 3.17049 19.7418 3.17049 19.7446 3.17049C21.0264 3.0453 22.3139 3.19041 23.5716 3.60156L95.6902 27.1209C101.519 29.0201 105.104 36.0822 103.683 42.8626L94.609 86.1241C94.5919 86.2038 94.5436 86.272 94.4724 86.3119C94.4283 86.3375 94.38 86.3503 94.3302 86.3503ZM1.88888 55.6181L94.1182 85.6973L103.128 42.7459C104.492 36.2415 101.076 29.4754 95.5152 27.6629L23.3952 4.14075C22.2115 3.75378 20.9994 3.61721 19.793 3.73671C19.7901 3.73671 19.7873 3.73671 19.783 3.73671C18.7744 3.83487 17.787 4.11087 16.8495 4.55616L16.5436 4.70839C13.7012 6.19079 11.6497 9.0674 10.9085 12.6041L1.88745 55.6167L1.88888 55.6181Z" fill="black"/>
<path d="M78.086 98.5614L65.1896 110.231C63.4654 111.791 61.0398 112.308 58.8289 111.587L27.3954 101.336C27.2517 101.289 27.1165 101.232 26.9871 101.168C26.0069 100.671 25.4648 99.6767 25.4648 98.6638C25.4648 97.9212 25.7593 97.1686 26.3867 96.5995L38.4893 85.6465L48.2344 88.8247L59.398 92.4653L68.3223 95.376L72.4736 96.7304L78.0846 98.5614H78.086Z" fill="white"/>
<path d="M60.8319 112.19C60.1305 112.19 59.4249 112.082 58.7406 111.858L27.307 101.607C27.1562 101.558 27.0097 101.497 26.8589 101.422C25.8218 100.897 25.1787 99.8398 25.1787 98.6647C25.1787 97.7912 25.5386 96.9831 26.1945 96.3899L38.297 85.4368C38.3724 85.3686 38.4791 85.3458 38.5759 85.3771L78.1726 98.2905C78.2693 98.3218 78.3419 98.4029 78.3632 98.5011C78.3846 98.5992 78.3519 98.7031 78.2765 98.7714L65.3801 110.441C64.1182 111.582 62.4878 112.188 60.8319 112.188V112.19ZM38.5574 85.9689L26.5772 96.811C26.0437 97.2947 25.7492 97.9534 25.7492 98.6647C25.7492 99.625 26.2727 100.487 27.1164 100.914C27.2401 100.975 27.3596 101.025 27.4834 101.065L58.917 111.316C61.0239 112.003 63.3542 111.507 64.9988 110.02L77.531 98.6789L38.5588 85.9689H38.5574Z" fill="black"/>
<path d="M82.3545 99.8116L65.1916 115.344C63.4673 116.903 61.0417 117.421 58.8309 116.7L27.3973 106.448C26.1596 106.044 25.4668 104.922 25.4668 103.778V98.6649C25.4668 99.6764 26.0088 100.671 26.989 101.169C27.1185 101.233 27.2537 101.291 27.3973 101.337L58.8309 111.588C61.0417 112.31 63.4673 111.792 65.1916 110.233L78.088 98.5625L80.5122 99.3521C81.0642 99.5327 81.619 99.6579 82.1696 99.7319L82.3559 99.8116H82.3545Z" fill="#EBECEE"/>
<path d="M60.8324 117.302C60.131 117.302 59.4254 117.194 58.7411 116.971L27.3075 106.719C26.0357 106.304 25.1807 105.121 25.1807 103.778V98.6653C25.1807 98.5088 25.3087 98.3808 25.4652 98.3808C25.6217 98.3808 25.7497 98.5088 25.7497 98.6653C25.7497 99.6256 26.2733 100.488 27.1169 100.915C27.2407 100.976 27.3602 101.025 27.4839 101.065L58.9175 111.317C61.0245 112.004 63.3548 111.508 64.9994 110.021L77.8957 98.3509C77.9711 98.2826 78.0778 98.2599 78.1746 98.2911L80.5988 99.0807C81.1294 99.2543 81.67 99.3781 82.2064 99.4492C82.232 99.452 82.2562 99.4592 82.2803 99.4691L82.4667 99.5488C82.5563 99.5872 82.6204 99.6683 82.636 99.7636C82.6517 99.8589 82.6189 99.9571 82.5464 100.021L65.3835 115.554C64.1216 116.695 62.4912 117.301 60.8352 117.301L60.8324 117.302ZM25.7497 100.468V103.78C25.7497 104.877 26.4468 105.84 27.4839 106.18L58.9175 116.431C61.0245 117.119 63.3548 116.622 64.9994 115.135L81.7682 99.9599C81.3172 99.8817 80.8662 99.7693 80.4224 99.6242L78.1561 98.8858L65.382 110.446C63.5867 112.07 61.0415 112.612 58.7425 111.862L27.309 101.61C27.1582 101.562 27.0116 101.501 26.8608 101.425C26.4084 101.196 26.0314 100.866 25.7497 100.469V100.468Z" fill="black"/>
<path d="M25.4652 104.174C25.3087 104.174 25.1807 104.046 25.1807 103.89V103.779C25.1807 103.622 25.3087 103.494 25.4652 103.494C25.6217 103.494 25.7497 103.622 25.7497 103.779V103.89C25.7497 104.046 25.6217 104.174 25.4652 104.174Z" fill="black"/>
<path d="M55.1763 91.0898V102.076L44.0127 98.4335V87.4492L55.1763 91.0898Z" fill="white"/>
<path d="M55.1766 102.36C55.1467 102.36 55.1169 102.355 55.0884 102.345L43.9248 98.7033C43.8082 98.6649 43.7285 98.5554 43.7285 98.433V87.4487C43.7285 87.3577 43.7726 87.2723 43.8466 87.2182C43.9206 87.1642 44.0159 87.1499 44.1013 87.1784L55.2648 90.819C55.3815 90.8574 55.4612 90.9669 55.4612 91.0893V102.075C55.4612 102.166 55.4171 102.251 55.3431 102.305C55.2933 102.341 55.2349 102.36 55.1766 102.36ZM44.2976 98.2267L54.8921 101.682V91.2956L44.2976 87.8414V98.2267Z" fill="black"/>
<path d="M64.0997 94.0006L55.1768 102.076V91.0898L64.0997 94.0006Z" fill="#EBECEE"/>
<path d="M55.1771 102.36C55.1387 102.36 55.0989 102.351 55.0619 102.335C54.9594 102.29 54.8926 102.187 54.8926 102.075V91.0893C54.8926 90.9983 54.9367 90.9129 55.0107 90.8589C55.0846 90.8048 55.18 90.7906 55.2653 90.819L64.1896 93.7298C64.2864 93.7611 64.3589 93.8422 64.3803 93.9403C64.4016 94.0385 64.3689 94.1423 64.2935 94.2106L55.3692 102.286C55.3151 102.334 55.2468 102.36 55.1785 102.36H55.1771ZM55.4616 91.482V101.435L63.5466 94.1182L55.4616 91.482Z" fill="black"/>
<path d="M53.6893 57.0347C53.5982 57.0347 53.5086 56.992 53.4545 56.9109L42.271 40.5475L28.0075 50.2898C27.878 50.3781 27.7002 50.3453 27.612 50.2159C27.5238 50.0864 27.5565 49.9086 27.686 49.8204L42.1843 39.9173C42.3137 39.8291 42.4915 39.8618 42.5797 39.9913L53.7632 56.3546L79.7281 38.6198C79.8576 38.5316 80.0354 38.5643 80.1236 38.6938C80.2118 38.8232 80.1791 39.0011 80.0496 39.0893L53.85 56.9834C53.8017 57.0176 53.7447 57.0332 53.6893 57.0332V57.0347Z" fill="black"/>
</svg>
