<svg width="64" height="64" viewBox="0 0 64 64" fill="none" xmlns="http://www.w3.org/2000/svg">
<path d="M33.9957 14.9336H38.233V48.7766H32.134V24.0776V22.6762L30.968 23.4536C29.9866 24.1078 28.8852 24.7169 27.6615 25.2796C26.6609 25.7121 25.6835 26.1004 24.7294 26.4447L22.9646 21.9345C23.7523 21.5955 24.5597 21.2259 25.3867 20.8257L25.3867 20.8258L25.3954 20.8214C26.5002 20.269 27.571 19.6818 28.6079 19.0597L28.6156 19.0551L28.6233 19.0502C29.6578 18.395 30.642 17.7217 31.5754 17.0303L31.5754 17.0303L31.579 17.0276C32.4672 16.3615 33.2732 15.6637 33.9957 14.9336Z" stroke="#FF444F" stroke-width="1.5"/>
</svg>
