<svg width="64" height="64" viewBox="0 0 64 64" fill="none" xmlns="http://www.w3.org/2000/svg">
<path d="M34.7681 36.8091L34.7674 36.8097C34.2498 37.2928 33.6825 37.843 33.0658 38.4597C32.4774 39.0481 31.9063 39.6538 31.3526 40.2767C30.8024 40.8957 30.3021 41.4822 29.8521 42.0361L29.8521 42.036L29.8485 42.0405C29.4223 42.5732 29.0947 43.0888 28.9508 43.5685L28.6611 44.534H29.6692H44.1172V49.409H21.9728C21.96 49.2084 21.9532 48.9828 21.9532 48.731V48.7276V48.7242V48.7209V48.7175V48.7141V48.7108V48.7074V48.704V48.7007V48.6973V48.694V48.6906V48.6873V48.684V48.6806V48.6773V48.674V48.6707V48.6674V48.664V48.6607V48.6574V48.6541V48.6508V48.6476V48.6443V48.641V48.6377V48.6344V48.6312V48.6279V48.6246V48.6214V48.6181V48.6149V48.6116V48.6084V48.6051V48.6019V48.5986V48.5954V48.5922V48.589V48.5858V48.5825V48.5793V48.5761V48.5729V48.5697V48.5665V48.5633V48.5602V48.557V48.5538V48.5506V48.5474V48.5443V48.5411V48.538V48.5348V48.5317V48.5285V48.5254V48.5222V48.5191V48.516V48.5128V48.5097V48.5066V48.5035V48.5004V48.4972V48.4941V48.491V48.4879V48.4848V48.4818V48.4787V48.4756V48.4725V48.4694V48.4664V48.4633V48.4602V48.4572V48.4541V48.4511V48.448V48.445V48.442V48.4389V48.4359V48.4329V48.4298V48.4268V48.4238V48.4208V48.4178V48.4148V48.4118V48.4088V48.4058V48.4028V48.3998V48.3968V48.3939V48.3909V48.3879V48.385V48.382V48.379V48.3761V48.3731V48.3702V48.3673V48.3643V48.3614V48.3585V48.3555V48.3526V48.3497V48.3468V48.3439V48.341V48.3381V48.3352V48.3323V48.3294V48.3265V48.3236V48.3207V48.3179V48.315V48.3121V48.3093V48.3064V48.3035V48.3007V48.2978V48.295V48.2922V48.2893V48.2865V48.2837V48.2808V48.278V48.2752V48.2724V48.2696V48.2668V48.264V48.2612V48.2584V48.2556V48.2528V48.25V48.2472V48.2445V48.2417V48.2389V48.2362V48.2334V48.2307V48.2279V48.2252V48.2224V48.2197V48.2169V48.2142V48.2115V48.2088V48.206V48.2033V48.2006V48.1979V48.1952V48.1925V48.1898V48.1871V48.1844V48.1817V48.1791V48.1764V48.1737V48.171V48.1684V48.1657V48.1631V48.1604V48.1578V48.1551V48.1525V48.1498V48.1472V48.1446V48.1419V48.1393V48.1367V48.1341V48.1315V48.1289V48.1263V48.1237V48.1211V48.1185V48.1159V48.1133V48.1107V48.1082V48.1056V48.103V48.1005V48.0979V48.0953V48.0928V48.0902V48.0877V48.0852V48.0826V48.0801V48.0776V48.075V48.0725V48.07V48.0675V48.065V48.0625V48.06V48.0575V48.055V48.0525V48.05V48.0475V48.045V48.0426V48.0401V48.0376V48.0352V48.0327V48.0303V48.0278V48.0254V48.0229V48.0205V48.018V48.0156V48.0132V48.0108V48.0083V48.0059V48.0035V48.0011V47.9987V47.9963V47.9939V47.9915V47.9891V47.9867V47.9843V47.982V47.9796V47.9772V47.9749V47.9725V47.9701V47.9678V47.9654V47.9631V47.9608V47.9584V47.9561V47.9538V47.9514V47.9491V47.9468V47.9445V47.9422V47.9398V47.9375V47.9352V47.933V47.9307V47.9284V47.9261V47.9238V47.9215V47.9193V47.917V47.9147V47.9125V47.9102V47.908V47.9057V47.9035V47.9012V47.899V47.8968V47.8945V47.8923V47.8901V47.8879V47.8857V47.8834V47.8812V47.879V47.8768V47.8746V47.8725V47.8703V47.8681V47.8659V47.8637V47.8616V47.8594V47.8572V47.8551V47.8529V47.8508V47.8486V47.8465V47.8443V47.8422V47.8401V47.8379V47.8358V47.8337V47.8316V47.8295V47.8274V47.8252V47.8232V47.8211V47.819V47.8169V47.8148V47.8127V47.8106V47.8086V47.8065V47.8044V47.8024V47.8003V47.7982V47.7962V47.7941V47.7921V47.7901V47.788V47.786V47.784V47.782V47.7799V47.7779V47.7759V47.7739V47.7719V47.7699V47.7679V47.7659V47.7639V47.7619V47.76V47.758V47.756V47.754V47.7521V47.7501V47.7482V47.7462V47.7443V47.7423V47.7404V47.7384V47.7365V47.7346V47.7326V47.7307V47.7288V47.7269V47.725V47.7231V47.7212V47.7193V47.7174V47.7155V47.7136V47.7117V47.7098V47.708V47.7061V47.7042V47.7024V47.7005V47.6986V47.6968V47.6949V47.6931V47.6913V47.6894V47.6876V47.6858V47.6839V47.6821V47.6803V47.6785V47.6767V47.6749V47.6731V47.6713V47.6695V47.6677V47.6659V47.6641V47.6624V47.6606V47.6588V47.657V47.6553V47.6535V47.6518V47.65V47.6483V47.6465V47.6448V47.6431V47.6413V47.6396V47.6379V47.6362V47.6344V47.6327V47.631V47.6293V47.6276V47.6259V47.6242V47.6225V47.6209V47.6192V47.6175V47.6158V47.6142V47.6125V47.6108V47.6092V47.6075V47.6059V47.6042V47.6026V47.6009V47.5993V47.5977V47.5961V47.5944V47.5928V47.5912V47.5896V47.588V47.5864V47.5848V47.5832V47.5816V47.58V47.5784V47.5768V47.5753V47.5737V47.5721V47.5706V47.569V47.5675V47.5659V47.5644V47.5628V47.5613V47.5597V47.5582V47.5567V47.5551V47.5536V47.5521V47.5506V47.5491V47.5476V47.5461V47.5446V47.5431V47.5416V47.5401V47.5386V47.5371V47.5357V47.5342V47.5327V47.5313V47.5298V47.5284V47.5269V47.5255V47.524V47.5226V47.5211V47.5197V47.5183V47.5169V47.5154V47.514V47.5126V47.5112V47.5098V47.5084V47.507C21.9532 45.957 22.1947 44.554 22.6676 43.2899C23.188 41.9906 23.8534 40.791 24.6634 39.6893L24.6635 39.6893L24.6695 39.6809C25.4918 38.5296 26.4127 37.4604 27.4325 36.473C28.5214 35.4521 29.5935 34.4311 30.6486 33.4101C31.4635 32.6291 32.2275 31.8991 32.9404 31.2201L32.947 31.2138L32.9535 31.2073C33.6798 30.481 34.3237 29.7852 34.8838 29.1201L34.8899 29.1129L34.8958 29.1055C35.4686 28.3896 35.9274 27.6776 36.263 26.9691L36.2661 26.9625L36.2691 26.9558C36.6144 26.1884 36.7942 25.404 36.7942 24.608C36.7942 22.9808 36.328 21.6442 35.2074 20.8374C34.2058 20.1162 32.9901 19.778 31.6072 19.778C30.6072 19.778 29.6535 19.9445 28.7513 20.2816C27.9279 20.5686 27.1544 20.9281 26.4323 21.3609C25.7612 21.7497 25.1671 22.1621 24.6544 22.6C24.4851 22.7332 24.3281 22.8599 24.184 22.9798L21.2846 18.9049C22.6031 17.7668 24.1049 16.8185 25.7939 16.0614L25.794 16.0614L25.7993 16.059C27.7041 15.1873 29.7393 14.75 31.9132 14.75C33.9332 14.75 35.6376 14.9822 37.0408 15.4287C38.453 15.8781 39.5739 16.5088 40.4298 17.3036L40.44 17.313L40.4505 17.3221C41.3347 18.0843 41.9749 19.0272 42.3746 20.1646L42.3787 20.1763L42.3832 20.1878C42.8197 21.3103 43.0462 22.6096 43.0462 24.098C43.0462 25.2882 42.8119 26.4287 42.3418 27.5256C41.8561 28.6589 41.2228 29.7649 40.4389 30.8434C39.6462 31.8998 38.7529 32.9256 37.7578 33.9207C36.7437 34.9348 35.7471 35.8976 34.7681 36.8091Z" stroke="#FF444F" stroke-width="1.5"/>
</svg>
