<svg width="64" height="64" viewBox="0 0 64 64" fill="none" xmlns="http://www.w3.org/2000/svg">
<path d="M27.2383 49.9766L27.226 49.9749L27.2138 49.9737C26.22 49.8744 25.2617 49.7255 24.3383 49.5276C23.4032 49.3273 22.557 49.1113 21.7985 48.8805C21.3368 48.74 20.9449 48.6083 20.6195 48.4857L21.7542 43.6338C22.5029 43.923 23.3713 44.2278 24.3573 44.5483L24.3678 44.5517L24.3785 44.5548C25.8623 44.9891 27.6552 45.197 29.7401 45.197C32.152 45.197 34.0783 44.7478 35.3641 43.7031C36.6404 42.666 37.2731 41.2554 37.2731 39.551C37.2731 38.5307 37.0476 37.6186 36.5484 36.8599C36.1062 36.1045 35.4859 35.5084 34.704 35.0757C33.9286 34.613 33.0225 34.317 32.0036 34.1698C31.0396 33.9923 30.0125 33.905 28.9241 33.905H26.7161V29.285H29.3321C30.1245 29.285 30.8868 29.2131 31.6178 29.0671C32.3974 28.9183 33.1044 28.6729 33.7288 28.3217L33.7439 28.3132L33.7586 28.304C34.404 27.9006 34.9172 27.3697 35.2863 26.7159C35.7074 25.997 35.8961 25.1457 35.8961 24.2C35.8961 23.4469 35.7368 22.7529 35.3893 22.1449C35.0653 21.5778 34.6363 21.1053 34.1057 20.7354C33.6116 20.3676 33.0329 20.1125 32.3862 19.9572C31.7768 19.7695 31.1489 19.676 30.5051 19.676C28.9666 19.676 27.5217 19.9088 26.1765 20.3814L26.1765 20.3814L26.1704 20.3836C25.1778 20.742 24.246 21.1664 23.3761 21.6577L21.3302 17.4502C21.711 17.2281 22.129 16.9975 22.5848 16.7587C23.2988 16.4021 24.0822 16.0754 24.9365 15.7797C25.787 15.4853 26.6898 15.2388 27.6456 15.041C28.6129 14.8477 29.6336 14.75 30.7091 14.75C32.725 14.75 34.4241 14.9983 35.8221 15.4749L35.8317 15.4781L35.8413 15.4811C37.2841 15.93 38.4376 16.5768 39.3271 17.4049L39.327 17.405L39.3375 17.4144C40.2365 18.2205 40.8992 19.1766 41.3321 20.2898L41.3321 20.2898L41.3348 20.2965C41.7715 21.3884 41.9951 22.6015 41.9951 23.945C41.9951 25.1901 41.648 26.4186 40.9283 27.6404C40.2175 28.8132 39.2672 29.7006 38.0679 30.3156L36.6141 31.0612L38.1272 31.6776C39.8385 32.3748 41.1231 33.4055 42.0169 34.7617L42.0224 34.77L42.028 34.7781C42.9465 36.0946 43.4231 37.7067 43.4231 39.653C43.4231 41.199 43.166 42.6176 42.6597 43.9163C42.1622 45.1586 41.3852 46.2506 40.3157 47.1954C39.2528 48.1007 37.8707 48.8386 36.1454 49.3924C34.4685 49.9078 32.44 50.174 30.0461 50.174C29.165 50.174 28.2293 50.1087 27.2383 49.9766Z" stroke="#FF444F" stroke-width="1.5"/>
</svg>
