<svg width="56" height="64" viewBox="0 0 56 64" fill="none" xmlns="http://www.w3.org/2000/svg">
<path d="M22.125 4C21.5 4 20.875 4.375 20.5 5L18.5 8H37.375L35.375 5C35 4.375 34.375 4 33.75 4H22.125ZM42 8H47.875H52H54C55 8 56 9 56 10C56 11.125 55 12 54 12H51.625L48.5 56.625C48.125 60.875 44.75 64 40.5 64H15.375C11.25 64 7.75 60.875 7.375 56.625L4.25 12H2C0.875 12 0 11.125 0 10C0 9 0.875 8 2 8H4H8H13.875L17.125 2.875C18.125 1.125 20.125 0 22.125 0H33.75C35.75 0 37.75 1.125 38.875 2.875L42 8ZM47.625 12H8.25L11.375 56.375C11.5 58.375 13.25 60 15.375 60H40.5C42.625 60 44.375 58.375 44.5 56.375L47.625 12Z" fill="#C40000"/>
</svg>
