<svg width="1440" height="1017" viewBox="0 0 1440 1017" fill="none" xmlns="http://www.w3.org/2000/svg">
<mask id="mask0_17602_18347" style="mask-type:alpha" maskUnits="userSpaceOnUse" x="0" y="0" width="1440" height="1017">
<path d="M0 56.4706H28.2353V112.941H0V56.4706Z" fill="#FFBFC2"/>
<path d="M0 875.294H28.2353V931.765H0V875.294Z" fill="#FFBFC2"/>
<path d="M0 621.176H28.2353V649.412H0V621.176Z" fill="#FFBFC2"/>
<path d="M0 141.176H28.2353V254.118H0V141.176Z" fill="#FFBFC2"/>
<path d="M0 480H28.2353V592.941H0V480Z" fill="#FFBFC2"/>
<path d="M0 282.353H28.2353V310.588H0V282.353Z" fill="#FFBFC2"/>
<path d="M0 677.647H28.2353V705.882H0V677.647Z" fill="#FFBFC2"/>
<path d="M13.1765 0H15.0588V1016.47H13.1765V0Z" fill="#FFBFC2"/>
<path d="M1440 56.4706H1411.76V112.941H1440V56.4706Z" fill="#FFBFC2"/>
<path d="M1440 875.294H1411.76V931.765H1440V875.294Z" fill="#FFBFC2"/>
<path d="M1440 621.176H1411.76V649.412H1440V621.176Z" fill="#FFBFC2"/>
<path d="M1440 141.176H1411.76V254.118H1440V141.176Z" fill="#FFBFC2"/>
<path d="M1440 480H1411.76V592.941H1440V480Z" fill="#FFBFC2"/>
<path d="M1440 282.353H1411.76V310.588H1440V282.353Z" fill="#FFBFC2"/>
<path d="M1440 677.647H1411.76V705.882H1440V677.647Z" fill="#FFBFC2"/>
<path d="M1426.82 0H1424.94V1016.47H1426.82V0Z" fill="#FFBFC2"/>
<path d="M282.353 56.4706H310.588V112.941H282.353V56.4706Z" fill="#FFBFC2"/>
<path d="M282.353 875.294H310.588V931.765H282.353V875.294Z" fill="#FFBFC2"/>
<path d="M282.353 621.176H310.588V649.412H282.353V621.176Z" fill="#FFBFC2"/>
<path d="M282.353 141.176H310.588V254.118H282.353V141.176Z" fill="#FFBFC2"/>
<path d="M282.353 480H310.588V592.941H282.353V480Z" fill="#FFBFC2"/>
<path d="M282.353 282.353H310.588V451.765H282.353V282.353Z" fill="#FFBFC2"/>
<path d="M282.353 677.647H310.588V847.059H282.353V677.647Z" fill="#FFBFC2"/>
<path d="M295.529 0H297.412V1016.47H295.529V0Z" fill="#FFBFC2"/>
<path d="M1214.12 56.4706H1185.88V112.941H1214.12V56.4706Z" fill="#FFBFC2"/>
<path d="M1214.12 875.294H1185.88V931.765H1214.12V875.294Z" fill="#FFBFC2"/>
<path d="M1214.12 621.176H1185.88V649.412H1214.12V621.176Z" fill="#FFBFC2"/>
<path d="M1214.12 141.176H1185.88V254.118H1214.12V141.176Z" fill="#FFBFC2"/>
<path d="M1214.12 480H1185.88V592.941H1214.12V480Z" fill="#FFBFC2"/>
<path d="M1214.12 282.353H1185.88V451.765H1214.12V282.353Z" fill="#FFBFC2"/>
<path d="M1214.12 677.647H1185.88V847.059H1214.12V677.647Z" fill="#FFBFC2"/>
<path d="M1200.94 0H1199.06V1016.47H1200.94V0Z" fill="#FFBFC2"/>
<path d="M621.176 56.4706H649.412V112.941H621.176V56.4706Z" fill="#FFBFC2"/>
<path d="M621.176 875.294H649.412V931.765H621.176V875.294Z" fill="#FFBFC2"/>
<path d="M621.176 621.176H649.412V649.412H621.176V621.176Z" fill="#FFBFC2"/>
<path d="M621.176 141.176H649.412V254.118H621.176V141.176Z" fill="#FFBFC2"/>
<path d="M621.176 480H649.412V592.941H621.176V480Z" fill="#FFBFC2"/>
<path d="M621.176 282.353H649.412V395.294H621.176V282.353Z" fill="#FFBFC2"/>
<path d="M621.176 677.647H649.412V847.059H621.176V677.647Z" fill="#FFBFC2"/>
<path d="M634.353 0H636.235V1016.47H634.353V0Z" fill="#FFBFC2"/>
<path d="M818.824 56.4706H790.588V112.941H818.824V56.4706Z" fill="#FFBFC2"/>
<path d="M818.824 875.294H790.588V931.765H818.824V875.294Z" fill="#FFBFC2"/>
<path d="M818.824 621.176H790.588V649.412H818.824V621.176Z" fill="#FFBFC2"/>
<path d="M818.824 141.176H790.588V254.118H818.824V141.176Z" fill="#FFBFC2"/>
<path d="M818.824 480H790.588V592.941H818.824V480Z" fill="#FFBFC2"/>
<path d="M818.824 282.353H790.588V395.294H818.824V282.353Z" fill="#FFBFC2"/>
<path d="M818.824 677.647H790.588V734.118H818.824V677.647Z" fill="#FFBFC2"/>
<path d="M805.647 0H803.765V1016.47H805.647V0Z" fill="#FFBFC2"/>
<path d="M169.412 960H197.647V903.529H169.412V960Z" fill="#FFBFC2"/>
<path d="M169.412 141.176H197.647V84.7059H169.412V141.176Z" fill="#FFBFC2"/>
<path d="M169.412 395.294H197.647V367.059H169.412V395.294Z" fill="#FFBFC2"/>
<path d="M169.412 875.294H197.647V762.353H169.412V875.294Z" fill="#FFBFC2"/>
<path d="M169.412 536.471H197.647V423.529H169.412V536.471Z" fill="#FFBFC2"/>
<path d="M169.412 734.118H197.647V564.706H169.412V734.118Z" fill="#FFBFC2"/>
<path d="M169.412 338.824H197.647V282.353H169.412V338.824Z" fill="#FFBFC2"/>
<path d="M182.588 1016.47H184.471V0H182.588V1016.47Z" fill="#FFBFC2"/>
<path d="M1270.59 960H1242.35V903.529H1270.59V960Z" fill="#FFBFC2"/>
<path d="M1270.59 141.176H1242.35V84.7059H1270.59V141.176Z" fill="#FFBFC2"/>
<path d="M1270.59 395.294H1242.35V367.059H1270.59V395.294Z" fill="#FFBFC2"/>
<path d="M1270.59 875.294H1242.35V762.353H1270.59V875.294Z" fill="#FFBFC2"/>
<path d="M1270.59 536.471H1242.35V423.529H1270.59V536.471Z" fill="#FFBFC2"/>
<path d="M1270.59 734.118H1242.35V564.706H1270.59V734.118Z" fill="#FFBFC2"/>
<path d="M1270.59 338.824H1242.35V282.353H1270.59V338.824Z" fill="#FFBFC2"/>
<path d="M1257.41 1016.47H1255.53V0H1257.41V1016.47Z" fill="#FFBFC2"/>
<path d="M508.235 960H536.471V903.529H508.235V960Z" fill="#FFBFC2"/>
<path d="M508.235 141.176H536.471V84.7059H508.235V141.176Z" fill="#FFBFC2"/>
<path d="M508.235 875.294H536.471V762.353H508.235V875.294Z" fill="#FFBFC2"/>
<path d="M508.235 536.471H536.471V423.529H508.235V536.471Z" fill="#FFBFC2"/>
<path d="M508.235 734.118H536.471V564.706H508.235V734.118Z" fill="#FFBFC2"/>
<path d="M508.235 338.824H536.471V169.412H508.235V338.824Z" fill="#FFBFC2"/>
<path d="M521.412 1016.47H523.294V0H521.412V1016.47Z" fill="#FFBFC2"/>
<path d="M931.765 960H903.529V903.529H931.765V960Z" fill="#FFBFC2"/>
<path d="M931.765 141.176H903.529V84.7059H931.765V141.176Z" fill="#FFBFC2"/>
<path d="M931.765 875.294H903.529V762.353H931.765V875.294Z" fill="#FFBFC2"/>
<path d="M931.765 536.471H903.529V423.529H931.765V536.471Z" fill="#FFBFC2"/>
<path d="M931.765 734.118H903.529V564.706H931.765V734.118Z" fill="#FFBFC2"/>
<path d="M931.765 338.824H903.529V169.412H931.765V338.824Z" fill="#FFBFC2"/>
<path d="M918.588 1016.47H916.706V0H918.588V1016.47Z" fill="#FFBFC2"/>
<path d="M56.4706 112.941H84.7059V169.412H56.4706V112.941Z" fill="#FFBFC2"/>
<path d="M56.4706 818.824H84.7059V875.294H56.4706V818.824Z" fill="#FFBFC2"/>
<path d="M56.4706 592.941H84.7059V649.412H56.4706V592.941Z" fill="#FFBFC2"/>
<path d="M56.4706 197.647H84.7059V225.882H56.4706V197.647Z" fill="#FFBFC2"/>
<path d="M56.4706 903.529H84.7059V931.765H56.4706V903.529Z" fill="#FFBFC2"/>
<path d="M56.4706 56.4706H84.7059V84.7059H56.4706V56.4706Z" fill="#FFBFC2"/>
<path d="M56.4706 254.118H84.7059V367.059H56.4706V254.118Z" fill="#FFBFC2"/>
<path d="M56.4706 677.647H84.7059V790.588H56.4706V677.647Z" fill="#FFBFC2"/>
<path d="M56.4706 395.294H84.7059V564.706H56.4706V395.294Z" fill="#FFBFC2"/>
<path d="M69.6471 0H71.5294V1016.47H69.6471V0Z" fill="#FFBFC2"/>
<path d="M1383.53 112.941H1355.29V169.412H1383.53V112.941Z" fill="#FFBFC2"/>
<path d="M1383.53 818.824H1355.29V875.294H1383.53V818.824Z" fill="#FFBFC2"/>
<path d="M1383.53 592.941H1355.29V649.412H1383.53V592.941Z" fill="#FFBFC2"/>
<path d="M1383.53 197.647H1355.29V225.882H1383.53V197.647Z" fill="#FFBFC2"/>
<path d="M1383.53 903.529H1355.29V931.765H1383.53V903.529Z" fill="#FFBFC2"/>
<path d="M1383.53 56.4706H1355.29V84.7059H1383.53V56.4706Z" fill="#FFBFC2"/>
<path d="M1383.53 254.118H1355.29V367.059H1383.53V254.118Z" fill="#FFBFC2"/>
<path d="M1383.53 677.647H1355.29V790.588H1383.53V677.647Z" fill="#FFBFC2"/>
<path d="M1383.53 395.294H1355.29V564.706H1383.53V395.294Z" fill="#FFBFC2"/>
<path d="M1370.35 0H1368.47V1016.47H1370.35V0Z" fill="#FFBFC2"/>
<path d="M395.294 903.529H423.529V847.059H395.294V903.529Z" fill="#FFBFC2"/>
<path d="M395.294 197.647H423.529V141.176H395.294V197.647Z" fill="#FFBFC2"/>
<path d="M395.294 423.529H423.529V367.059H395.294V423.529Z" fill="#FFBFC2"/>
<path d="M395.294 818.824H423.529V790.588H395.294V818.824Z" fill="#FFBFC2"/>
<path d="M395.294 112.941H423.529V84.7059H395.294V112.941Z" fill="#FFBFC2"/>
<path d="M395.294 960H423.529V931.765H395.294V960Z" fill="#FFBFC2"/>
<path d="M395.294 762.353H423.529V649.412H395.294V762.353Z" fill="#FFBFC2"/>
<path d="M395.294 338.824H423.529V282.353H395.294V338.824Z" fill="#FFBFC2"/>
<path d="M395.294 621.176H423.529V451.765H395.294V621.176Z" fill="#FFBFC2"/>
<path d="M408.471 1016.47H410.353V0H408.471V1016.47Z" fill="#FFBFC2"/>
<path d="M225.882 112.941H254.118V169.412H225.882V112.941Z" fill="#FFBFC2"/>
<path d="M225.882 818.824H254.118V875.294H225.882V818.824Z" fill="#FFBFC2"/>
<path d="M225.882 592.941H254.118V649.412H225.882V592.941Z" fill="#FFBFC2"/>
<path d="M225.882 197.647H254.118V225.882H225.882V197.647Z" fill="#FFBFC2"/>
<path d="M225.882 903.529H254.118V931.765H225.882V903.529Z" fill="#FFBFC2"/>
<path d="M225.882 56.4706H254.118V84.7059H225.882V56.4706Z" fill="#FFBFC2"/>
<path d="M225.882 254.118H254.118V367.059H225.882V254.118Z" fill="#FFBFC2"/>
<path d="M225.882 677.647H254.118V790.588H225.882V677.647Z" fill="#FFBFC2"/>
<path d="M225.882 395.294H254.118V423.529H225.882V395.294Z" fill="#FFBFC2"/>
<path d="M239.059 0H240.941V1016.47H239.059V0Z" fill="#FFBFC2"/>
<path d="M1044.71 903.529H1016.47V847.059H1044.71V903.529Z" fill="#FFBFC2"/>
<path d="M1044.71 197.647H1016.47V141.176H1044.71V197.647Z" fill="#FFBFC2"/>
<path d="M1044.71 423.529H1016.47V367.059H1044.71V423.529Z" fill="#FFBFC2"/>
<path d="M1044.71 818.824H1016.47V790.588H1044.71V818.824Z" fill="#FFBFC2"/>
<path d="M1044.71 112.941H1016.47V84.7059H1044.71V112.941Z" fill="#FFBFC2"/>
<path d="M1044.71 960H1016.47V931.765H1044.71V960Z" fill="#FFBFC2"/>
<path d="M1044.71 762.353H1016.47V649.412H1044.71V762.353Z" fill="#FFBFC2"/>
<path d="M1044.71 338.824H1016.47V225.882H1044.71V338.824Z" fill="#FFBFC2"/>
<path d="M1044.71 621.176H1016.47V592.941H1044.71V621.176Z" fill="#FFBFC2"/>
<path d="M1031.53 1016.47H1029.65V0H1031.53V1016.47Z" fill="#FFBFC2"/>
<path d="M564.706 112.941H592.941V169.412H564.706V112.941Z" fill="#FFBFC2"/>
<path d="M564.706 818.824H592.941V875.294H564.706V818.824Z" fill="#FFBFC2"/>
<path d="M564.706 592.941H592.941V649.412H564.706V592.941Z" fill="#FFBFC2"/>
<path d="M564.706 197.647H592.941V225.882H564.706V197.647Z" fill="#FFBFC2"/>
<path d="M564.706 903.529H592.941V931.765H564.706V903.529Z" fill="#FFBFC2"/>
<path d="M564.706 56.4706H592.941V84.7059H564.706V56.4706Z" fill="#FFBFC2"/>
<path d="M564.706 254.118H592.941V367.059H564.706V254.118Z" fill="#FFBFC2"/>
<path d="M564.706 677.647H592.941V790.588H564.706V677.647Z" fill="#FFBFC2"/>
<path d="M564.706 395.294H592.941V564.706H564.706V395.294Z" fill="#FFBFC2"/>
<path d="M577.882 0H579.765V1016.47H577.882V0Z" fill="#FFBFC2"/>
<path d="M875.294 112.941H847.059V169.412H875.294V112.941Z" fill="#FFBFC2"/>
<path d="M875.294 818.824H847.059V875.294H875.294V818.824Z" fill="#FFBFC2"/>
<path d="M875.294 592.941H847.059V649.412H875.294V592.941Z" fill="#FFBFC2"/>
<path d="M875.294 197.647H847.059V225.882H875.294V197.647Z" fill="#FFBFC2"/>
<path d="M875.294 903.529H847.059V931.765H875.294V903.529Z" fill="#FFBFC2"/>
<path d="M875.294 56.4706H847.059V84.7059H875.294V56.4706Z" fill="#FFBFC2"/>
<path d="M875.294 254.118H847.059V367.059H875.294V254.118Z" fill="#FFBFC2"/>
<path d="M875.294 677.647H847.059V790.588H875.294V677.647Z" fill="#FFBFC2"/>
<path d="M875.294 395.294H847.059V564.706H875.294V395.294Z" fill="#FFBFC2"/>
<path d="M862.118 0H860.235V1016.47H862.118V0Z" fill="#FFBFC2"/>
<path d="M112.941 903.529H141.176V847.059H112.941V903.529Z" fill="#FFBFC2"/>
<path d="M112.941 197.647H141.176V141.176H112.941V197.647Z" fill="#FFBFC2"/>
<path d="M112.941 423.529H141.176V367.059H112.941V423.529Z" fill="#FFBFC2"/>
<path d="M112.941 818.824H141.176V790.588H112.941V818.824Z" fill="#FFBFC2"/>
<path d="M112.941 112.941H141.176V84.7059H112.941V112.941Z" fill="#FFBFC2"/>
<path d="M112.941 960H141.176V931.765H112.941V960Z" fill="#FFBFC2"/>
<path d="M112.941 762.353H141.176V705.882H112.941V762.353Z" fill="#FFBFC2"/>
<path d="M112.941 338.824H141.176V225.882H112.941V338.824Z" fill="#FFBFC2"/>
<path d="M112.941 621.176H141.176V451.765H112.941V621.176Z" fill="#FFBFC2"/>
<path d="M126.118 1016.47H128V0H126.118V1016.47Z" fill="#FFBFC2"/>
<path d="M1327.06 903.529H1298.82V847.059H1327.06V903.529Z" fill="#FFBFC2"/>
<path d="M1327.06 197.647H1298.82V141.176H1327.06V197.647Z" fill="#FFBFC2"/>
<path d="M1327.06 423.529H1298.82V367.059H1327.06V423.529Z" fill="#FFBFC2"/>
<path d="M1327.06 818.824H1298.82V790.588H1327.06V818.824Z" fill="#FFBFC2"/>
<path d="M1327.06 112.941H1298.82V84.7059H1327.06V112.941Z" fill="#FFBFC2"/>
<path d="M1327.06 960H1298.82V931.765H1327.06V960Z" fill="#FFBFC2"/>
<path d="M1327.06 762.353H1298.82V705.882H1327.06V762.353Z" fill="#FFBFC2"/>
<path d="M1327.06 338.824H1298.82V225.882H1327.06V338.824Z" fill="#FFBFC2"/>
<path d="M1327.06 621.176H1298.82V451.765H1327.06V621.176Z" fill="#FFBFC2"/>
<path d="M1313.88 1016.47H1312V0H1313.88V1016.47Z" fill="#FFBFC2"/>
<path d="M451.765 112.941H480V169.412H451.765V112.941Z" fill="#FFBFC2"/>
<path d="M451.765 818.824H480V875.294H451.765V818.824Z" fill="#FFBFC2"/>
<path d="M451.765 592.941H480V649.412H451.765V592.941Z" fill="#FFBFC2"/>
<path d="M451.765 197.647H480V225.882H451.765V197.647Z" fill="#FFBFC2"/>
<path d="M451.765 903.529H480V931.765H451.765V903.529Z" fill="#FFBFC2"/>
<path d="M451.765 56.4706H480V84.7059H451.765V56.4706Z" fill="#FFBFC2"/>
<path d="M451.765 254.118H480V367.059H451.765V254.118Z" fill="#FFBFC2"/>
<path d="M451.765 677.647H480V790.588H451.765V677.647Z" fill="#FFBFC2"/>
<path d="M451.765 395.294H480V508.235H451.765V395.294Z" fill="#FFBFC2"/>
<path d="M464.941 0H466.824V1016.47H464.941V0Z" fill="#FFBFC2"/>
<path d="M1101.18 112.941H1072.94V169.412H1101.18V112.941Z" fill="#FFBFC2"/>
<path d="M1101.18 818.824H1072.94V875.294H1101.18V818.824Z" fill="#FFBFC2"/>
<path d="M1101.18 592.941H1072.94V649.412H1101.18V592.941Z" fill="#FFBFC2"/>
<path d="M1101.18 197.647H1072.94V225.882H1101.18V197.647Z" fill="#FFBFC2"/>
<path d="M1101.18 903.529H1072.94V931.765H1101.18V903.529Z" fill="#FFBFC2"/>
<path d="M1101.18 56.4706H1072.94V84.7059H1101.18V56.4706Z" fill="#FFBFC2"/>
<path d="M1101.18 254.118H1072.94V367.059H1101.18V254.118Z" fill="#FFBFC2"/>
<path d="M1101.18 677.647H1072.94V790.588H1101.18V677.647Z" fill="#FFBFC2"/>
<path d="M1101.18 395.294H1072.94V508.235H1101.18V395.294Z" fill="#FFBFC2"/>
<path d="M1088 0H1086.12V1016.47H1088V0Z" fill="#FFBFC2"/>
<path d="M338.824 903.529H367.059V847.059H338.824V903.529Z" fill="#FFBFC2"/>
<path d="M338.824 197.647H367.059V141.176H338.824V197.647Z" fill="#FFBFC2"/>
<path d="M338.824 423.529H367.059V367.059H338.824V423.529Z" fill="#FFBFC2"/>
<path d="M338.824 818.824H367.059V790.588H338.824V818.824Z" fill="#FFBFC2"/>
<path d="M338.824 112.941H367.059V84.7059H338.824V112.941Z" fill="#FFBFC2"/>
<path d="M338.824 960H367.059V931.765H338.824V960Z" fill="#FFBFC2"/>
<path d="M338.824 762.353H367.059V734.118H338.824V762.353Z" fill="#FFBFC2"/>
<path d="M338.824 338.824H367.059V225.882H338.824V338.824Z" fill="#FFBFC2"/>
<path d="M338.824 621.176H367.059V508.235H338.824V621.176Z" fill="#FFBFC2"/>
<path d="M352 1016.47H353.882V0H352V1016.47Z" fill="#FFBFC2"/>
<path d="M1157.65 903.529H1129.41V847.059H1157.65V903.529Z" fill="#FFBFC2"/>
<path d="M1157.65 197.647H1129.41V141.176H1157.65V197.647Z" fill="#FFBFC2"/>
<path d="M1157.65 423.529H1129.41V367.059H1157.65V423.529Z" fill="#FFBFC2"/>
<path d="M1157.65 818.824H1129.41V790.588H1157.65V818.824Z" fill="#FFBFC2"/>
<path d="M1157.65 112.941H1129.41V84.7059H1157.65V112.941Z" fill="#FFBFC2"/>
<path d="M1157.65 960H1129.41V931.765H1157.65V960Z" fill="#FFBFC2"/>
<path d="M1157.65 762.353H1129.41V734.118H1157.65V762.353Z" fill="#FFBFC2"/>
<path d="M1157.65 338.824H1129.41V225.882H1157.65V338.824Z" fill="#FFBFC2"/>
<path d="M1157.65 621.176H1129.41V508.235H1157.65V621.176Z" fill="#FFBFC2"/>
<path d="M1144.47 1016.47H1142.59V0H1144.47V1016.47Z" fill="#FFBFC2"/>
<path d="M677.647 903.529H705.882V847.059H677.647V903.529Z" fill="#FFBFC2"/>
<path d="M677.647 197.647H705.882V141.176H677.647V197.647Z" fill="#FFBFC2"/>
<path d="M677.647 423.529H705.882V367.059H677.647V423.529Z" fill="#FFBFC2"/>
<path d="M677.647 818.824H705.882V790.588H677.647V818.824Z" fill="#FFBFC2"/>
<path d="M677.647 112.941H705.882V84.7059H677.647V112.941Z" fill="#FFBFC2"/>
<path d="M677.647 960H705.882V931.765H677.647V960Z" fill="#FFBFC2"/>
<path d="M677.647 762.353H705.882V734.118H677.647V762.353Z" fill="#FFBFC2"/>
<path d="M677.647 338.824H705.882V225.882H677.647V338.824Z" fill="#FFBFC2"/>
<path d="M677.647 621.176H705.882V451.765H677.647V621.176Z" fill="#FFBFC2"/>
<path d="M690.824 1016.47H692.706V0H690.824V1016.47Z" fill="#FFBFC2"/>
<path d="M762.353 903.529H734.118V847.059H762.353V903.529Z" fill="#FFBFC2"/>
<path d="M762.353 282.353H734.118V169.412H762.353V282.353Z" fill="#FFBFC2"/>
<path d="M762.353 423.529H734.118V367.059H762.353V423.529Z" fill="#FFBFC2"/>
<path d="M762.353 818.824H734.118V790.588H762.353V818.824Z" fill="#FFBFC2"/>
<path d="M762.353 84.7059H734.118V56.4706H762.353V84.7059Z" fill="#FFBFC2"/>
<path d="M762.353 960H734.118V931.765H762.353V960Z" fill="#FFBFC2"/>
<path d="M762.353 762.353H734.118V649.412H762.353V762.353Z" fill="#FFBFC2"/>
<path d="M762.353 338.824H734.118V310.588H762.353V338.824Z" fill="#FFBFC2"/>
<path d="M762.353 564.706H734.118V536.471H762.353V564.706Z" fill="#FFBFC2"/>
<path d="M749.177 1016.47H747.294V0H749.177V1016.47Z" fill="#FFBFC2"/>
<path d="M988.235 903.529H960V847.059H988.235V903.529Z" fill="#FFBFC2"/>
<path d="M988.235 197.647H960V141.176H988.235V197.647Z" fill="#FFBFC2"/>
<path d="M988.235 423.529H960V367.059H988.235V423.529Z" fill="#FFBFC2"/>
<path d="M988.235 818.824H960V790.588H988.235V818.824Z" fill="#FFBFC2"/>
<path d="M988.235 84.7059H960V56.4706H988.235V84.7059Z" fill="#FFBFC2"/>
<path d="M988.235 960H960V931.765H988.235V960Z" fill="#FFBFC2"/>
<path d="M988.235 762.353H960V649.412H988.235V762.353Z" fill="#FFBFC2"/>
<path d="M988.235 338.824H960V282.353H988.235V338.824Z" fill="#FFBFC2"/>
<path d="M988.235 621.176H960V451.765H988.235V621.176Z" fill="#FFBFC2"/>
<path d="M975.059 1016.47H973.177V0H975.059V1016.47Z" fill="#FFBFC2"/>
</mask>
<g mask="url(#mask0_17602_18347)">
<g filter="url(#filter0_f_17602_18347)">
<ellipse cx="700.5" cy="511.5" rx="1161.5" ry="78.5" fill="#FFE6E6"/>
</g>
</g>
<defs>
<filter id="filter0_f_17602_18347" x="-591" y="303" width="2583" height="417" filterUnits="userSpaceOnUse" color-interpolation-filters="sRGB">
<feFlood flood-opacity="0" result="BackgroundImageFix"/>
<feBlend mode="normal" in="SourceGraphic" in2="BackgroundImageFix" result="shape"/>
<feGaussianBlur stdDeviation="65" result="effect1_foregroundBlur_17602_18347"/>
</filter>
</defs>
</svg>
